<svg width="334" height="92" viewBox="0 0 334 92" fill="none" xmlns="http://www.w3.org/2000/svg">
<path d="M105.76 83C105.653 83 105.563 82.968 105.488 82.904C105.424 82.8293 105.392 82.7387 105.392 82.632V72.184C105.392 72.0667 105.424 71.976 105.488 71.912C105.563 71.8373 105.653 71.8 105.76 71.8H109.392C111.003 71.8 112.165 72.1627 112.88 72.888C113.595 73.6027 113.968 74.6853 114 76.136C114.011 76.4453 114.016 76.8613 114.016 77.384C114.016 77.9067 114.011 78.328 114 78.648C113.968 79.6613 113.797 80.488 113.488 81.128C113.189 81.7573 112.715 82.2267 112.064 82.536C111.413 82.8453 110.549 83 109.472 83H105.76ZM109.392 81.64C110.128 81.64 110.709 81.5387 111.136 81.336C111.573 81.1333 111.888 80.8133 112.08 80.376C112.283 79.928 112.395 79.3307 112.416 78.584C112.437 77.944 112.448 77.544 112.448 77.384C112.448 77.2133 112.437 76.8187 112.416 76.2C112.395 75.144 112.144 74.376 111.664 73.896C111.184 73.4053 110.4 73.16 109.312 73.16H106.96V81.64H109.392ZM116.615 73.128C116.509 73.128 116.418 73.096 116.343 73.032C116.279 72.9573 116.247 72.8667 116.247 72.76V71.896C116.247 71.7893 116.279 71.6987 116.343 71.624C116.418 71.5493 116.509 71.512 116.615 71.512H117.623C117.73 71.512 117.821 71.5493 117.895 71.624C117.97 71.6987 118.007 71.7893 118.007 71.896V72.76C118.007 72.8667 117.97 72.9573 117.895 73.032C117.821 73.096 117.73 73.128 117.623 73.128H116.615ZM116.743 83C116.637 83 116.546 82.968 116.471 82.904C116.407 82.8293 116.375 82.7387 116.375 82.632V75.048C116.375 74.9413 116.407 74.856 116.471 74.792C116.546 74.7173 116.637 74.68 116.743 74.68H117.511C117.618 74.68 117.703 74.7173 117.767 74.792C117.842 74.856 117.879 74.9413 117.879 75.048V82.632C117.879 82.7387 117.842 82.8293 117.767 82.904C117.703 82.968 117.618 83 117.511 83H116.743ZM123.818 86.52C122.944 86.52 122.24 86.3707 121.706 86.072C121.173 85.784 120.794 85.4533 120.57 85.08C120.346 84.7067 120.224 84.3707 120.202 84.072C120.192 83.9653 120.224 83.8747 120.298 83.8C120.384 83.7253 120.474 83.688 120.57 83.688H121.338C121.434 83.688 121.514 83.7093 121.578 83.752C121.642 83.8053 121.696 83.896 121.738 84.024C121.866 84.3653 122.074 84.6587 122.362 84.904C122.661 85.16 123.12 85.288 123.738 85.288C124.528 85.288 125.109 85.1173 125.482 84.776C125.856 84.4453 126.042 83.8533 126.042 83V81.912C125.765 82.264 125.413 82.5467 124.986 82.76C124.56 82.9627 124.053 83.064 123.466 83.064C122.336 83.064 121.488 82.7067 120.922 81.992C120.368 81.2667 120.074 80.3493 120.042 79.24L120.026 78.792L120.042 78.36C120.074 77.2613 120.373 76.3493 120.938 75.624C121.504 74.888 122.346 74.52 123.466 74.52C124.586 74.52 125.461 74.9307 126.09 75.752V75.064C126.09 74.9573 126.122 74.8667 126.186 74.792C126.261 74.7173 126.352 74.68 126.458 74.68H127.194C127.301 74.68 127.392 74.7173 127.466 74.792C127.541 74.8667 127.578 74.9573 127.578 75.064V82.824C127.578 85.288 126.325 86.52 123.818 86.52ZM123.786 81.784C124.512 81.784 125.061 81.544 125.434 81.064C125.808 80.584 126.01 80.0133 126.042 79.352C126.053 79.256 126.058 79.0693 126.058 78.792C126.058 78.5253 126.053 78.344 126.042 78.248C126.01 77.5867 125.808 77.016 125.434 76.536C125.072 76.056 124.522 75.816 123.786 75.816C123.029 75.816 122.48 76.0507 122.138 76.52C121.797 76.9893 121.61 77.608 121.578 78.376L121.562 78.792L121.578 79.224C121.61 79.9813 121.797 80.6 122.138 81.08C122.48 81.5493 123.029 81.784 123.786 81.784ZM130.357 73.128C130.25 73.128 130.16 73.096 130.085 73.032C130.021 72.9573 129.989 72.8667 129.989 72.76V71.896C129.989 71.7893 130.021 71.6987 130.085 71.624C130.16 71.5493 130.25 71.512 130.357 71.512H131.365C131.472 71.512 131.562 71.5493 131.637 71.624C131.712 71.6987 131.749 71.7893 131.749 71.896V72.76C131.749 72.8667 131.712 72.9573 131.637 73.032C131.562 73.096 131.472 73.128 131.365 73.128H130.357ZM130.485 83C130.378 83 130.288 82.968 130.213 82.904C130.149 82.8293 130.117 82.7387 130.117 82.632V75.048C130.117 74.9413 130.149 74.856 130.213 74.792C130.288 74.7173 130.378 74.68 130.485 74.68H131.253C131.36 74.68 131.445 74.7173 131.509 74.792C131.584 74.856 131.621 74.9413 131.621 75.048V82.632C131.621 82.7387 131.584 82.8293 131.509 82.904C131.445 82.968 131.36 83 131.253 83H130.485ZM137.4 83C135.715 83 134.872 82.0613 134.872 80.184V75.96H133.624C133.517 75.96 133.427 75.928 133.352 75.864C133.288 75.7893 133.256 75.6987 133.256 75.592V75.048C133.256 74.9413 133.288 74.856 133.352 74.792C133.427 74.7173 133.517 74.68 133.624 74.68H134.872V72.008C134.872 71.9013 134.904 71.816 134.968 71.752C135.043 71.6773 135.133 71.64 135.24 71.64H135.992C136.099 71.64 136.184 71.6773 136.248 71.752C136.323 71.816 136.36 71.9013 136.36 72.008V74.68H138.344C138.451 74.68 138.536 74.7173 138.6 74.792C138.675 74.856 138.712 74.9413 138.712 75.048V75.592C138.712 75.6987 138.675 75.7893 138.6 75.864C138.536 75.928 138.451 75.96 138.344 75.96H136.36V80.072C136.36 80.6053 136.451 81.0107 136.632 81.288C136.813 81.5547 137.112 81.688 137.528 81.688H138.504C138.611 81.688 138.696 81.7253 138.76 81.8C138.835 81.864 138.872 81.9493 138.872 82.056V82.632C138.872 82.7387 138.835 82.8293 138.76 82.904C138.696 82.968 138.611 83 138.504 83H137.4ZM142.882 83.16C142.359 83.16 141.874 83.0533 141.426 82.84C140.978 82.6267 140.621 82.3387 140.354 81.976C140.098 81.6027 139.97 81.192 139.97 80.744C139.97 80.04 140.258 79.464 140.834 79.016C141.421 78.5573 142.21 78.2587 143.202 78.12L145.586 77.784V77.32C145.586 76.232 144.962 75.688 143.714 75.688C143.245 75.688 142.861 75.7893 142.562 75.992C142.263 76.184 142.039 76.4133 141.89 76.68C141.858 76.776 141.815 76.8453 141.762 76.888C141.719 76.9307 141.655 76.952 141.57 76.952H140.882C140.786 76.952 140.701 76.92 140.626 76.856C140.562 76.7813 140.53 76.696 140.53 76.6C140.541 76.344 140.658 76.056 140.882 75.736C141.117 75.4053 141.474 75.1227 141.954 74.888C142.434 74.6427 143.026 74.52 143.73 74.52C144.925 74.52 145.783 74.8027 146.306 75.368C146.829 75.9227 147.09 76.616 147.09 77.448V82.632C147.09 82.7387 147.053 82.8293 146.978 82.904C146.914 82.968 146.829 83 146.722 83H145.986C145.879 83 145.789 82.968 145.714 82.904C145.65 82.8293 145.618 82.7387 145.618 82.632V81.944C145.383 82.2853 145.042 82.5733 144.594 82.808C144.146 83.0427 143.575 83.16 142.882 83.16ZM143.218 81.96C143.911 81.96 144.477 81.736 144.914 81.288C145.362 80.8293 145.586 80.1733 145.586 79.32V78.872L143.73 79.144C142.973 79.2507 142.402 79.432 142.018 79.688C141.634 79.9333 141.442 80.248 141.442 80.632C141.442 81.0587 141.618 81.3893 141.97 81.624C142.322 81.848 142.738 81.96 143.218 81.96ZM149.934 83C149.828 83 149.737 82.968 149.662 82.904C149.598 82.8293 149.566 82.7387 149.566 82.632V72.008C149.566 71.9013 149.598 71.816 149.662 71.752C149.737 71.6773 149.828 71.64 149.934 71.64H150.686C150.793 71.64 150.878 71.6773 150.942 71.752C151.017 71.816 151.054 71.9013 151.054 72.008V82.632C151.054 82.7387 151.017 82.8293 150.942 82.904C150.878 82.968 150.793 83 150.686 83H149.934ZM161.923 83.16C160.493 83.16 159.405 82.776 158.659 82.008C157.923 81.24 157.528 80.1787 157.475 78.824C157.464 78.536 157.459 78.0667 157.459 77.416C157.459 76.7547 157.464 76.2747 157.475 75.976C157.528 74.632 157.928 73.576 158.675 72.808C159.421 72.0293 160.504 71.64 161.923 71.64C162.872 71.64 163.677 71.8107 164.339 72.152C165 72.4827 165.501 72.92 165.843 73.464C166.184 74.008 166.371 74.5893 166.403 75.208V75.24C166.403 75.3253 166.365 75.4 166.291 75.464C166.227 75.5173 166.152 75.544 166.067 75.544H165.187C164.973 75.544 164.84 75.4213 164.787 75.176C164.605 74.376 164.28 73.816 163.811 73.496C163.341 73.1653 162.712 73 161.923 73C160.088 73 159.139 74.0187 159.075 76.056C159.064 76.344 159.059 76.7867 159.059 77.384C159.059 77.9813 159.064 78.4347 159.075 78.744C159.139 80.7813 160.088 81.8 161.923 81.8C162.712 81.8 163.341 81.64 163.811 81.32C164.291 80.9893 164.616 80.424 164.787 79.624C164.819 79.4853 164.867 79.3893 164.931 79.336C164.995 79.2827 165.08 79.256 165.187 79.256H166.067C166.163 79.256 166.243 79.288 166.307 79.352C166.381 79.4053 166.413 79.48 166.403 79.576C166.371 80.2053 166.184 80.792 165.843 81.336C165.501 81.88 165 82.3227 164.339 82.664C163.677 82.9947 162.872 83.16 161.923 83.16ZM171.603 83.16C170.59 83.16 169.806 82.8347 169.251 82.184C168.696 81.5227 168.419 80.648 168.419 79.56V75.048C168.419 74.9413 168.451 74.856 168.515 74.792C168.59 74.7173 168.68 74.68 168.787 74.68H169.587C169.694 74.68 169.779 74.7173 169.843 74.792C169.918 74.856 169.955 74.9413 169.955 75.048V79.48C169.955 81.0693 170.648 81.864 172.035 81.864C172.707 81.864 173.24 81.656 173.635 81.24C174.03 80.8133 174.227 80.2267 174.227 79.48V75.048C174.227 74.9413 174.259 74.856 174.323 74.792C174.398 74.7173 174.488 74.68 174.595 74.68H175.395C175.502 74.68 175.587 74.7173 175.651 74.792C175.715 74.856 175.747 74.9413 175.747 75.048V82.632C175.747 82.7387 175.715 82.8293 175.651 82.904C175.587 82.968 175.502 83 175.395 83H174.643C174.536 83 174.446 82.968 174.371 82.904C174.307 82.8293 174.275 82.7387 174.275 82.632V81.928C173.976 82.3333 173.614 82.6427 173.187 82.856C172.76 83.0587 172.232 83.16 171.603 83.16ZM178.652 83C178.545 83 178.455 82.968 178.38 82.904C178.316 82.8293 178.284 82.7387 178.284 82.632V75.064C178.284 74.9573 178.316 74.8667 178.38 74.792C178.455 74.7173 178.545 74.68 178.652 74.68H179.388C179.495 74.68 179.585 74.7173 179.66 74.792C179.735 74.8667 179.772 74.9573 179.772 75.064V75.768C180.209 75.0427 180.956 74.68 182.012 74.68H182.636C182.743 74.68 182.828 74.7173 182.892 74.792C182.967 74.856 183.004 74.9413 183.004 75.048V75.704C183.004 75.8107 182.967 75.896 182.892 75.96C182.828 76.024 182.743 76.056 182.636 76.056H181.676C181.1 76.056 180.647 76.2267 180.316 76.568C179.985 76.8987 179.82 77.352 179.82 77.928V82.632C179.82 82.7387 179.783 82.8293 179.708 82.904C179.633 82.968 179.543 83 179.436 83H178.652ZM184.89 83C184.783 83 184.693 82.968 184.618 82.904C184.554 82.8293 184.522 82.7387 184.522 82.632V75.064C184.522 74.9573 184.554 74.8667 184.618 74.792C184.693 74.7173 184.783 74.68 184.89 74.68H185.626C185.733 74.68 185.823 74.7173 185.898 74.792C185.973 74.8667 186.01 74.9573 186.01 75.064V75.768C186.447 75.0427 187.194 74.68 188.25 74.68H188.874C188.981 74.68 189.066 74.7173 189.13 74.792C189.205 74.856 189.242 74.9413 189.242 75.048V75.704C189.242 75.8107 189.205 75.896 189.13 75.96C189.066 76.024 188.981 76.056 188.874 76.056H187.914C187.338 76.056 186.885 76.2267 186.554 76.568C186.223 76.8987 186.058 77.352 186.058 77.928V82.632C186.058 82.7387 186.021 82.8293 185.946 82.904C185.871 82.968 185.781 83 185.674 83H184.89ZM193.932 83.16C192.833 83.16 191.953 82.824 191.292 82.152C190.641 81.4693 190.284 80.5413 190.22 79.368L190.204 78.824L190.22 78.296C190.295 77.144 190.657 76.2267 191.308 75.544C191.969 74.8613 192.839 74.52 193.916 74.52C195.1 74.52 196.017 74.8987 196.668 75.656C197.319 76.4027 197.644 77.416 197.644 78.696V78.968C197.644 79.0747 197.607 79.1653 197.532 79.24C197.468 79.304 197.383 79.336 197.276 79.336H191.74V79.48C191.772 80.1733 191.98 80.7653 192.364 81.256C192.759 81.736 193.276 81.976 193.916 81.976C194.407 81.976 194.807 81.88 195.116 81.688C195.436 81.4853 195.671 81.2773 195.82 81.064C195.916 80.936 195.985 80.8613 196.028 80.84C196.081 80.808 196.172 80.792 196.3 80.792H197.084C197.18 80.792 197.26 80.8187 197.324 80.872C197.388 80.9253 197.42 81 197.42 81.096C197.42 81.3307 197.271 81.6133 196.972 81.944C196.684 82.2747 196.273 82.5627 195.74 82.808C195.217 83.0427 194.615 83.16 193.932 83.16ZM196.124 78.232V78.184C196.124 77.448 195.921 76.8507 195.516 76.392C195.121 75.9227 194.588 75.688 193.916 75.688C193.244 75.688 192.711 75.9227 192.316 76.392C191.932 76.8507 191.74 77.448 191.74 78.184V78.232H196.124ZM200.085 83C199.978 83 199.888 82.968 199.813 82.904C199.749 82.8293 199.717 82.7387 199.717 82.632V75.048C199.717 74.9413 199.749 74.856 199.813 74.792C199.888 74.7173 199.978 74.68 200.085 74.68H200.837C200.944 74.68 201.029 74.7173 201.093 74.792C201.168 74.856 201.205 74.9413 201.205 75.048V75.752C201.514 75.3573 201.877 75.0533 202.293 74.84C202.72 74.6267 203.248 74.52 203.877 74.52C204.901 74.52 205.696 74.8507 206.261 75.512C206.837 76.1627 207.125 77.032 207.125 78.12V82.632C207.125 82.7387 207.088 82.8293 207.013 82.904C206.949 82.968 206.864 83 206.757 83H205.957C205.85 83 205.76 82.968 205.685 82.904C205.621 82.8293 205.589 82.7387 205.589 82.632V78.2C205.589 77.4427 205.402 76.856 205.029 76.44C204.666 76.024 204.138 75.816 203.445 75.816C202.773 75.816 202.24 76.0293 201.845 76.456C201.45 76.872 201.253 77.4533 201.253 78.2V82.632C201.253 82.7387 201.216 82.8293 201.141 82.904C201.077 82.968 200.992 83 200.885 83H200.085ZM212.94 83.16C211.799 83.16 210.903 82.84 210.252 82.2C209.612 81.5493 209.271 80.6427 209.228 79.48L209.212 78.84L209.228 78.2C209.271 77.0373 209.612 76.136 210.252 75.496C210.903 74.8453 211.799 74.52 212.94 74.52C213.708 74.52 214.359 74.6587 214.892 74.936C215.426 75.2133 215.82 75.5547 216.076 75.96C216.343 76.3653 216.487 76.7707 216.508 77.176C216.519 77.2827 216.487 77.368 216.412 77.432C216.338 77.496 216.247 77.528 216.14 77.528H215.372C215.266 77.528 215.186 77.5067 215.132 77.464C215.079 77.4213 215.026 77.336 214.972 77.208C214.791 76.696 214.535 76.3333 214.204 76.12C213.874 75.896 213.458 75.784 212.956 75.784C212.295 75.784 211.767 75.992 211.372 76.408C210.988 76.8133 210.78 77.4373 210.748 78.28L210.732 78.856L210.748 79.4C210.78 80.2533 210.988 80.8827 211.372 81.288C211.756 81.6933 212.284 81.896 212.956 81.896C213.458 81.896 213.874 81.7893 214.204 81.576C214.535 81.352 214.791 80.984 214.972 80.472C215.026 80.344 215.079 80.2587 215.132 80.216C215.186 80.1627 215.266 80.136 215.372 80.136H216.14C216.247 80.136 216.338 80.1733 216.412 80.248C216.487 80.312 216.519 80.3973 216.508 80.504C216.487 80.8987 216.343 81.304 216.076 81.72C215.82 82.1253 215.426 82.4667 214.892 82.744C214.37 83.0213 213.719 83.16 212.94 83.16ZM219.79 86.04C219.705 86.04 219.63 86.008 219.566 85.944C219.502 85.88 219.47 85.8053 219.47 85.72C219.47 85.6453 219.497 85.5493 219.55 85.432L220.782 82.504L217.726 75.288C217.673 75.1493 217.646 75.0587 217.646 75.016C217.646 74.92 217.678 74.84 217.742 74.776C217.806 74.712 217.886 74.68 217.982 74.68H218.766C218.937 74.68 219.065 74.7707 219.15 74.952L221.582 80.776L224.078 74.952C224.163 74.7707 224.297 74.68 224.478 74.68H225.23C225.326 74.68 225.406 74.712 225.47 74.776C225.534 74.84 225.566 74.9147 225.566 75C225.566 75.032 225.539 75.128 225.486 75.288L220.942 85.768C220.857 85.9493 220.723 86.04 220.542 86.04H219.79ZM231.558 83C231.451 83 231.361 82.968 231.286 82.904C231.222 82.8293 231.19 82.7387 231.19 82.632V72.184C231.19 72.0667 231.222 71.976 231.286 71.912C231.361 71.8373 231.451 71.8 231.558 71.8H238.166C238.273 71.8 238.358 71.8373 238.422 71.912C238.497 71.976 238.534 72.0667 238.534 72.184V72.792C238.534 72.8987 238.502 72.9893 238.438 73.064C238.374 73.128 238.283 73.16 238.166 73.16H232.726V76.664H237.814C237.921 76.664 238.006 76.7013 238.07 76.776C238.145 76.84 238.182 76.9307 238.182 77.048V77.64C238.182 77.7467 238.145 77.8373 238.07 77.912C238.006 77.976 237.921 78.008 237.814 78.008H232.726V81.64H238.294C238.411 81.64 238.502 81.672 238.566 81.736C238.63 81.8 238.662 81.8907 238.662 82.008V82.632C238.662 82.7387 238.625 82.8293 238.55 82.904C238.486 82.968 238.401 83 238.294 83H231.558ZM240.461 83C240.376 83 240.296 82.968 240.221 82.904C240.157 82.84 240.125 82.76 240.125 82.664C240.125 82.568 240.163 82.472 240.237 82.376L243.021 78.744L240.413 75.304C240.339 75.2187 240.301 75.1227 240.301 75.016C240.301 74.92 240.333 74.84 240.397 74.776C240.461 74.712 240.541 74.68 240.637 74.68H241.453C241.613 74.68 241.752 74.7653 241.869 74.936L243.997 77.704L246.125 74.952C246.189 74.8667 246.248 74.8027 246.301 74.76C246.365 74.7067 246.445 74.68 246.541 74.68H247.325C247.421 74.68 247.501 74.712 247.565 74.776C247.629 74.84 247.661 74.92 247.661 75.016C247.661 75.1227 247.624 75.2187 247.549 75.304L244.909 78.776L247.693 82.376C247.768 82.472 247.805 82.568 247.805 82.664C247.805 82.76 247.773 82.84 247.709 82.904C247.645 82.968 247.565 83 247.469 83H246.621C246.461 83 246.323 82.92 246.205 82.76L243.965 79.832L241.693 82.76C241.629 82.8347 241.565 82.8933 241.501 82.936C241.448 82.9787 241.373 83 241.277 83H240.461ZM252.771 83.16C251.63 83.16 250.734 82.84 250.083 82.2C249.443 81.5493 249.102 80.6427 249.059 79.48L249.043 78.84L249.059 78.2C249.102 77.0373 249.443 76.136 250.083 75.496C250.734 74.8453 251.63 74.52 252.771 74.52C253.539 74.52 254.19 74.6587 254.723 74.936C255.257 75.2133 255.651 75.5547 255.907 75.96C256.174 76.3653 256.318 76.7707 256.339 77.176C256.35 77.2827 256.318 77.368 256.243 77.432C256.169 77.496 256.078 77.528 255.971 77.528H255.203C255.097 77.528 255.017 77.5067 254.963 77.464C254.91 77.4213 254.857 77.336 254.803 77.208C254.622 76.696 254.366 76.3333 254.035 76.12C253.705 75.896 253.289 75.784 252.787 75.784C252.126 75.784 251.598 75.992 251.203 76.408C250.819 76.8133 250.611 77.4373 250.579 78.28L250.563 78.856L250.579 79.4C250.611 80.2533 250.819 80.8827 251.203 81.288C251.587 81.6933 252.115 81.896 252.787 81.896C253.289 81.896 253.705 81.7893 254.035 81.576C254.366 81.352 254.622 80.984 254.803 80.472C254.857 80.344 254.91 80.2587 254.963 80.216C255.017 80.1627 255.097 80.136 255.203 80.136H255.971C256.078 80.136 256.169 80.1733 256.243 80.248C256.318 80.312 256.35 80.3973 256.339 80.504C256.318 80.8987 256.174 81.304 255.907 81.72C255.651 82.1253 255.257 82.4667 254.723 82.744C254.201 83.0213 253.55 83.16 252.771 83.16ZM258.784 83C258.677 83 258.586 82.968 258.512 82.904C258.448 82.8293 258.416 82.7387 258.416 82.632V72.008C258.416 71.9013 258.448 71.816 258.512 71.752C258.586 71.6773 258.677 71.64 258.784 71.64H259.584C259.69 71.64 259.776 71.6773 259.84 71.752C259.914 71.816 259.952 71.9013 259.952 72.008V75.736C260.261 75.3413 260.624 75.0427 261.04 74.84C261.456 74.6267 261.973 74.52 262.592 74.52C263.616 74.52 264.41 74.8507 264.976 75.512C265.552 76.1627 265.84 77.032 265.84 78.12V82.632C265.84 82.7387 265.802 82.8293 265.728 82.904C265.664 82.968 265.578 83 265.472 83H264.672C264.565 83 264.474 82.968 264.4 82.904C264.336 82.8293 264.304 82.7387 264.304 82.632V78.2C264.304 77.4427 264.117 76.856 263.744 76.44C263.381 76.024 262.853 75.816 262.16 75.816C261.488 75.816 260.949 76.0293 260.544 76.456C260.149 76.872 259.952 77.4533 259.952 78.2V82.632C259.952 82.7387 259.914 82.8293 259.84 82.904C259.776 82.968 259.69 83 259.584 83H258.784ZM270.63 83.16C270.107 83.16 269.622 83.0533 269.174 82.84C268.726 82.6267 268.368 82.3387 268.102 81.976C267.846 81.6027 267.718 81.192 267.718 80.744C267.718 80.04 268.006 79.464 268.582 79.016C269.168 78.5573 269.958 78.2587 270.95 78.12L273.334 77.784V77.32C273.334 76.232 272.71 75.688 271.462 75.688C270.992 75.688 270.608 75.7893 270.31 75.992C270.011 76.184 269.787 76.4133 269.638 76.68C269.606 76.776 269.563 76.8453 269.51 76.888C269.467 76.9307 269.403 76.952 269.318 76.952H268.63C268.534 76.952 268.448 76.92 268.374 76.856C268.31 76.7813 268.278 76.696 268.278 76.6C268.288 76.344 268.406 76.056 268.63 75.736C268.864 75.4053 269.222 75.1227 269.702 74.888C270.182 74.6427 270.774 74.52 271.478 74.52C272.672 74.52 273.531 74.8027 274.054 75.368C274.576 75.9227 274.838 76.616 274.838 77.448V82.632C274.838 82.7387 274.8 82.8293 274.726 82.904C274.662 82.968 274.576 83 274.47 83H273.734C273.627 83 273.536 82.968 273.462 82.904C273.398 82.8293 273.366 82.7387 273.366 82.632V81.944C273.131 82.2853 272.79 82.5733 272.342 82.808C271.894 83.0427 271.323 83.16 270.63 83.16ZM270.966 81.96C271.659 81.96 272.224 81.736 272.662 81.288C273.11 80.8293 273.334 80.1733 273.334 79.32V78.872L271.478 79.144C270.72 79.2507 270.15 79.432 269.766 79.688C269.382 79.9333 269.19 80.248 269.19 80.632C269.19 81.0587 269.366 81.3893 269.718 81.624C270.07 81.848 270.486 81.96 270.966 81.96ZM277.666 83C277.559 83 277.468 82.968 277.394 82.904C277.33 82.8293 277.298 82.7387 277.298 82.632V75.048C277.298 74.9413 277.33 74.856 277.394 74.792C277.468 74.7173 277.559 74.68 277.666 74.68H278.418C278.524 74.68 278.61 74.7173 278.674 74.792C278.748 74.856 278.786 74.9413 278.786 75.048V75.752C279.095 75.3573 279.458 75.0533 279.874 74.84C280.3 74.6267 280.828 74.52 281.458 74.52C282.482 74.52 283.276 74.8507 283.842 75.512C284.418 76.1627 284.706 77.032 284.706 78.12V82.632C284.706 82.7387 284.668 82.8293 284.594 82.904C284.53 82.968 284.444 83 284.338 83H283.538C283.431 83 283.34 82.968 283.266 82.904C283.202 82.8293 283.17 82.7387 283.17 82.632V78.2C283.17 77.4427 282.983 76.856 282.61 76.44C282.247 76.024 281.719 75.816 281.026 75.816C280.354 75.816 279.82 76.0293 279.426 76.456C279.031 76.872 278.834 77.4533 278.834 78.2V82.632C278.834 82.7387 278.796 82.8293 278.722 82.904C278.658 82.968 278.572 83 278.466 83H277.666ZM290.569 86.52C289.694 86.52 288.99 86.3707 288.457 86.072C287.924 85.784 287.545 85.4533 287.321 85.08C287.097 84.7067 286.974 84.3707 286.953 84.072C286.942 83.9653 286.974 83.8747 287.049 83.8C287.134 83.7253 287.225 83.688 287.321 83.688H288.089C288.185 83.688 288.265 83.7093 288.329 83.752C288.393 83.8053 288.446 83.896 288.489 84.024C288.617 84.3653 288.825 84.6587 289.113 84.904C289.412 85.16 289.87 85.288 290.489 85.288C291.278 85.288 291.86 85.1173 292.233 84.776C292.606 84.4453 292.793 83.8533 292.793 83V81.912C292.516 82.264 292.164 82.5467 291.737 82.76C291.31 82.9627 290.804 83.064 290.217 83.064C289.086 83.064 288.238 82.7067 287.673 81.992C287.118 81.2667 286.825 80.3493 286.793 79.24L286.777 78.792L286.793 78.36C286.825 77.2613 287.124 76.3493 287.689 75.624C288.254 74.888 289.097 74.52 290.217 74.52C291.337 74.52 292.212 74.9307 292.841 75.752V75.064C292.841 74.9573 292.873 74.8667 292.937 74.792C293.012 74.7173 293.102 74.68 293.209 74.68H293.945C294.052 74.68 294.142 74.7173 294.217 74.792C294.292 74.8667 294.329 74.9573 294.329 75.064V82.824C294.329 85.288 293.076 86.52 290.569 86.52ZM290.537 81.784C291.262 81.784 291.812 81.544 292.185 81.064C292.558 80.584 292.761 80.0133 292.793 79.352C292.804 79.256 292.809 79.0693 292.809 78.792C292.809 78.5253 292.804 78.344 292.793 78.248C292.761 77.5867 292.558 77.016 292.185 76.536C291.822 76.056 291.273 75.816 290.537 75.816C289.78 75.816 289.23 76.0507 288.889 76.52C288.548 76.9893 288.361 77.608 288.329 78.376L288.313 78.792L288.329 79.224C288.361 79.9813 288.548 80.6 288.889 81.08C289.23 81.5493 289.78 81.784 290.537 81.784ZM300.196 83.16C299.097 83.16 298.217 82.824 297.556 82.152C296.905 81.4693 296.548 80.5413 296.484 79.368L296.468 78.824L296.484 78.296C296.558 77.144 296.921 76.2267 297.572 75.544C298.233 74.8613 299.102 74.52 300.18 74.52C301.364 74.52 302.281 74.8987 302.932 75.656C303.582 76.4027 303.908 77.416 303.908 78.696V78.968C303.908 79.0747 303.87 79.1653 303.796 79.24C303.732 79.304 303.646 79.336 303.54 79.336H298.004V79.48C298.036 80.1733 298.244 80.7653 298.628 81.256C299.022 81.736 299.54 81.976 300.18 81.976C300.67 81.976 301.07 81.88 301.38 81.688C301.7 81.4853 301.934 81.2773 302.084 81.064C302.18 80.936 302.249 80.8613 302.292 80.84C302.345 80.808 302.436 80.792 302.564 80.792H303.348C303.444 80.792 303.524 80.8187 303.588 80.872C303.652 80.9253 303.684 81 303.684 81.096C303.684 81.3307 303.534 81.6133 303.236 81.944C302.948 82.2747 302.537 82.5627 302.004 82.808C301.481 83.0427 300.878 83.16 300.196 83.16ZM302.388 78.232V78.184C302.388 77.448 302.185 76.8507 301.78 76.392C301.385 75.9227 300.852 75.688 300.18 75.688C299.508 75.688 298.974 75.9227 298.58 76.392C298.196 76.8507 298.004 77.448 298.004 78.184V78.232H302.388ZM309.021 83.16C307.912 83.16 307.074 82.7973 306.509 82.072C305.944 81.3467 305.645 80.4293 305.613 79.32L305.597 78.84L305.613 78.36C305.645 77.2613 305.944 76.3493 306.509 75.624C307.074 74.888 307.912 74.52 309.021 74.52C310.12 74.52 310.984 74.9093 311.613 75.688V72.008C311.613 71.9013 311.645 71.816 311.709 71.752C311.784 71.6773 311.874 71.64 311.981 71.64H312.749C312.856 71.64 312.941 71.6773 313.005 71.752C313.08 71.816 313.117 71.9013 313.117 72.008V82.632C313.117 82.7387 313.08 82.8293 313.005 82.904C312.941 82.968 312.856 83 312.749 83H312.029C311.922 83 311.832 82.968 311.757 82.904C311.693 82.8293 311.661 82.7387 311.661 82.632V81.96C311.042 82.76 310.162 83.16 309.021 83.16ZM309.357 81.864C310.093 81.864 310.642 81.624 311.005 81.144C311.378 80.6533 311.581 80.072 311.613 79.4C311.624 79.2827 311.629 79.08 311.629 78.792C311.629 78.4933 311.624 78.2853 311.613 78.168C311.592 77.5387 311.389 76.9893 311.005 76.52C310.621 76.0507 310.072 75.816 309.357 75.816C308.6 75.816 308.045 76.0507 307.693 76.52C307.352 76.9893 307.165 77.608 307.133 78.376L307.117 78.84C307.117 80.856 307.864 81.864 309.357 81.864Z" fill="#E0E0E0"/>
<path d="M115.64 48C115.373 48 115.133 47.9067 114.92 47.72C114.733 47.5333 114.64 47.2933 114.64 47V44.24C112.667 44 110.973 43.4933 109.56 42.72C108.173 41.9467 107.12 41.0133 106.4 39.92C105.707 38.8 105.333 37.6133 105.28 36.36C105.28 36.1467 105.36 35.96 105.52 35.8C105.707 35.6133 105.92 35.52 106.16 35.52H111.2C111.52 35.52 111.773 35.5867 111.96 35.72C112.173 35.8267 112.387 36 112.6 36.24C112.947 36.9333 113.493 37.5067 114.24 37.96C115.013 38.4133 116.053 38.64 117.36 38.64C118.88 38.64 120.04 38.4 120.84 37.92C121.64 37.44 122.04 36.7867 122.04 35.96C122.04 35.3733 121.827 34.8933 121.4 34.52C121 34.1467 120.36 33.8133 119.48 33.52C118.6 33.2267 117.293 32.8933 115.56 32.52C112.333 31.88 109.933 30.9067 108.36 29.6C106.787 28.2933 106 26.44 106 24.04C106 21.9067 106.773 20.0933 108.32 18.6C109.867 17.08 111.973 16.1467 114.64 15.8V13C114.64 12.7067 114.733 12.4667 114.92 12.28C115.133 12.0933 115.373 12 115.64 12H118.96C119.253 12 119.493 12.0933 119.68 12.28C119.867 12.4667 119.96 12.7067 119.96 13V15.88C121.72 16.1733 123.227 16.7333 124.48 17.56C125.76 18.36 126.733 19.28 127.4 20.32C128.067 21.36 128.427 22.3867 128.48 23.4C128.48 23.6133 128.4 23.8133 128.24 24C128.08 24.16 127.88 24.24 127.64 24.24H122.36C122.04 24.24 121.773 24.1867 121.56 24.08C121.373 23.9733 121.2 23.8 121.04 23.56C120.88 22.9467 120.44 22.4267 119.72 22C119.027 21.5733 118.16 21.36 117.12 21.36C115.92 21.36 115 21.5733 114.36 22C113.72 22.4267 113.4 23.0533 113.4 23.88C113.4 24.44 113.573 24.9067 113.92 25.28C114.293 25.6533 114.88 26 115.68 26.32C116.507 26.6133 117.68 26.92 119.2 27.24C121.68 27.6933 123.653 28.2667 125.12 28.96C126.587 29.6267 127.667 30.4933 128.36 31.56C129.053 32.6267 129.4 33.9867 129.4 35.64C129.4 37.9867 128.547 39.9067 126.84 41.4C125.133 42.8933 122.84 43.8267 119.96 44.2V47C119.96 47.2933 119.867 47.5333 119.68 47.72C119.493 47.9067 119.253 48 118.96 48H115.64ZM143.719 44.4C141.132 44.4 138.959 44 137.199 43.2C135.465 42.4 134.172 41.4133 133.319 40.24C132.492 39.04 132.052 37.84 131.999 36.64C131.999 36.4 132.079 36.2 132.239 36.04C132.425 35.88 132.639 35.8 132.879 35.8H138.119C138.412 35.8 138.652 35.8533 138.839 35.96C139.025 36.0667 139.199 36.2667 139.359 36.56C139.892 37.9467 141.345 38.64 143.719 38.64C145.079 38.64 146.132 38.3333 146.879 37.72C147.652 37.08 148.039 36.2133 148.039 35.12C148.039 32.9867 146.652 31.92 143.879 31.92H139.439C139.172 31.92 138.932 31.8267 138.719 31.64C138.532 31.4267 138.439 31.1867 138.439 30.92V28.68C138.439 28.0933 138.652 27.64 139.079 27.32L145.639 21.76H134.519C134.252 21.76 134.012 21.6667 133.799 21.48C133.612 21.2667 133.519 21.0267 133.519 20.76V17C133.519 16.7067 133.612 16.4667 133.799 16.28C134.012 16.0933 134.252 16 134.519 16H152.919C153.212 16 153.452 16.0933 153.639 16.28C153.852 16.4667 153.959 16.7067 153.959 17V20.4C153.959 20.9067 153.745 21.3467 153.319 21.72L147.239 27.36L147.519 27.44C149.972 27.76 151.905 28.5867 153.319 29.92C154.759 31.2267 155.479 33.1067 155.479 35.56C155.479 37.3467 154.972 38.9067 153.959 40.24C152.945 41.5733 151.545 42.6 149.759 43.32C147.972 44.04 145.959 44.4 143.719 44.4ZM170.646 44.4C166.966 44.3733 164.179 43.4 162.286 41.48C160.393 39.5333 159.366 36.9867 159.206 33.84C159.153 32.4 159.126 31.12 159.126 30C159.126 28.8533 159.153 27.5333 159.206 26.04C159.313 24.04 159.793 22.2667 160.646 20.72C161.526 19.1467 162.806 17.9067 164.486 17C166.166 16.0667 168.219 15.6 170.646 15.6C174.246 15.6267 177.019 16.6 178.966 18.52C180.913 20.44 181.966 22.9467 182.126 26.04C182.179 27.5333 182.206 28.8533 182.206 30C182.206 31.12 182.179 32.4 182.126 33.84C181.939 36.9867 180.899 39.5333 179.006 41.48C177.113 43.4 174.326 44.3733 170.646 44.4ZM170.646 38.6C171.953 38.6 172.926 38.1733 173.566 37.32C174.233 36.44 174.593 35.2133 174.646 33.64C174.699 32.8667 174.726 31.6267 174.726 29.92C174.726 28.2133 174.699 27 174.646 26.28C174.593 24.76 174.246 23.56 173.606 22.68C172.966 21.8 171.979 21.3467 170.646 21.32C169.339 21.3467 168.353 21.8 167.686 22.68C167.046 23.56 166.699 24.76 166.646 26.28C166.619 27 166.606 28.2133 166.606 29.92C166.606 31.6267 166.619 32.8667 166.646 33.64C166.779 36.9467 168.113 38.6 170.646 38.6ZM188.073 44C187.807 44 187.567 43.9067 187.353 43.72C187.167 43.5067 187.073 43.2667 187.073 43V17C187.073 16.7067 187.167 16.4667 187.353 16.28C187.567 16.0933 187.807 16 188.073 16H200.273C203.633 16 206.127 16.6933 207.753 18.08C209.407 19.44 210.233 21.3867 210.233 23.92C210.233 25.2533 209.887 26.3867 209.193 27.32C208.527 28.2267 207.767 28.8933 206.913 29.32C208.007 29.8267 208.927 30.64 209.673 31.76C210.42 32.88 210.793 34.1333 210.793 35.52C210.793 38.1867 209.913 40.2667 208.153 41.76C206.393 43.2533 203.887 44 200.633 44H188.073ZM199.473 27.12C200.54 27.12 201.353 26.8533 201.913 26.32C202.473 25.76 202.753 25.0267 202.753 24.12C202.753 23.24 202.473 22.5333 201.913 22C201.353 21.4667 200.54 21.2 199.473 21.2H194.273V27.12H199.473ZM199.833 38.8C200.927 38.8 201.78 38.48 202.393 37.84C203.007 37.2 203.313 36.4267 203.313 35.52C203.313 34.56 203.007 33.7733 202.393 33.16C201.78 32.52 200.927 32.2 199.833 32.2H194.273V38.8H199.833Z" fill="white"/>
<circle cx="40" cy="40" r="40" fill="white" fill-opacity="0.1"/>
<path d="M54 55H27C26.4696 55 25.9609 54.7893 25.5858 54.4142C25.2107 54.0391 25 53.5304 25 53V26C25 25.7348 25.1054 25.4804 25.2929 25.2929C25.4804 25.1054 25.7348 25 26 25C26.2652 25 26.5196 25.1054 26.7071 25.2929C26.8946 25.4804 27 25.7348 27 26V53H54C54.2652 53 54.5196 53.1054 54.7071 53.2929C54.8946 53.4804 55 53.7348 55 54C55 54.2652 54.8946 54.5196 54.7071 54.7071C54.5196 54.8946 54.2652 55 54 55Z" fill="#3671E9"/>
<path d="M33.75 51H31.25C30.6533 51 30.081 50.7629 29.659 50.341C29.2371 49.919 29 49.3467 29 48.75V39.25C29 38.6533 29.2371 38.081 29.659 37.659C30.081 37.2371 30.6533 37 31.25 37H33.75C34.3467 37 34.919 37.2371 35.341 37.659C35.7629 38.081 36 38.6533 36 39.25V48.75C36 49.3467 35.7629 49.919 35.341 50.341C34.919 50.7629 34.3467 51 33.75 51Z" fill="#3671E9"/>
<path d="M42.75 51H40.25C39.6533 51 39.081 50.7629 38.659 50.341C38.2371 49.919 38 49.3467 38 48.75V36.25C38 35.6533 38.2371 35.081 38.659 34.659C39.081 34.2371 39.6533 34 40.25 34H42.75C43.3467 34 43.919 34.2371 44.341 34.659C44.7629 35.081 45 35.6533 45 36.25V48.75C45 49.3467 44.7629 49.919 44.341 50.341C43.919 50.7629 43.3467 51 42.75 51Z" fill="#3671E9"/>
<path d="M51.7274 51H49.2274C48.6307 51 48.0584 50.7629 47.6364 50.341C47.2145 49.919 46.9774 49.3467 46.9774 48.75V32.25C46.9774 31.6533 47.2145 31.081 47.6364 30.659C48.0584 30.2371 48.6307 30 49.2274 30H51.7274C52.3242 30 52.8965 30.2371 53.3184 30.659C53.7404 31.081 53.9774 31.6533 53.9774 32.25V48.75C53.9774 49.3467 53.7404 49.919 53.3184 50.341C52.8965 50.7629 52.3242 51 51.7274 51Z" fill="#3671E9"/>
</svg>
