<svg width="334" height="92" viewBox="0 0 334 92" fill="none" xmlns="http://www.w3.org/2000/svg">
<path d="M108.208 83C108.101 83 108.011 82.968 107.936 82.904C107.872 82.8293 107.84 82.7387 107.84 82.632V73.224H104.768C104.661 73.224 104.571 73.192 104.496 73.128C104.432 73.0533 104.4 72.9627 104.4 72.856V72.184C104.4 72.0773 104.432 71.9867 104.496 71.912C104.571 71.8373 104.661 71.8 104.768 71.8H112.48C112.597 71.8 112.688 71.8373 112.752 71.912C112.827 71.976 112.864 72.0667 112.864 72.184V72.856C112.864 72.9627 112.827 73.0533 112.752 73.128C112.677 73.192 112.587 73.224 112.48 73.224H109.424V82.632C109.424 82.7387 109.387 82.8293 109.312 82.904C109.237 82.968 109.147 83 109.04 83H108.208ZM113.681 83C113.574 83 113.483 82.968 113.409 82.904C113.345 82.8293 113.313 82.7387 113.313 82.632V75.064C113.313 74.9573 113.345 74.8667 113.409 74.792C113.483 74.7173 113.574 74.68 113.681 74.68H114.417C114.523 74.68 114.614 74.7173 114.689 74.792C114.763 74.8667 114.801 74.9573 114.801 75.064V75.768C115.238 75.0427 115.985 74.68 117.041 74.68H117.665C117.771 74.68 117.857 74.7173 117.921 74.792C117.995 74.856 118.033 74.9413 118.033 75.048V75.704C118.033 75.8107 117.995 75.896 117.921 75.96C117.857 76.024 117.771 76.056 117.665 76.056H116.705C116.129 76.056 115.675 76.2267 115.345 76.568C115.014 76.8987 114.849 77.352 114.849 77.928V82.632C114.849 82.7387 114.811 82.8293 114.737 82.904C114.662 82.968 114.571 83 114.465 83H113.681ZM122.655 83.16C121.642 83.16 120.858 82.8347 120.303 82.184C119.748 81.5227 119.471 80.648 119.471 79.56V75.048C119.471 74.9413 119.503 74.856 119.567 74.792C119.642 74.7173 119.732 74.68 119.839 74.68H120.639C120.746 74.68 120.831 74.7173 120.895 74.792C120.97 74.856 121.007 74.9413 121.007 75.048V79.48C121.007 81.0693 121.7 81.864 123.087 81.864C123.759 81.864 124.292 81.656 124.687 81.24C125.082 80.8133 125.279 80.2267 125.279 79.48V75.048C125.279 74.9413 125.311 74.856 125.375 74.792C125.45 74.7173 125.54 74.68 125.647 74.68H126.447C126.554 74.68 126.639 74.7173 126.703 74.792C126.767 74.856 126.799 74.9413 126.799 75.048V82.632C126.799 82.7387 126.767 82.8293 126.703 82.904C126.639 82.968 126.554 83 126.447 83H125.695C125.588 83 125.498 82.968 125.423 82.904C125.359 82.8293 125.327 82.7387 125.327 82.632V81.928C125.028 82.3333 124.666 82.6427 124.239 82.856C123.812 83.0587 123.284 83.16 122.655 83.16ZM132.216 83.16C131.469 83.16 130.84 83.0427 130.328 82.808C129.827 82.5627 129.448 82.2853 129.192 81.976C128.947 81.6667 128.824 81.4107 128.824 81.208C128.824 81.1013 128.861 81.0213 128.936 80.968C129.021 80.904 129.107 80.872 129.192 80.872H129.912C130.019 80.872 130.115 80.9253 130.2 81.032C130.456 81.3307 130.733 81.5653 131.032 81.736C131.331 81.9067 131.731 81.992 132.232 81.992C132.787 81.992 133.235 81.8853 133.576 81.672C133.928 81.448 134.104 81.144 134.104 80.76C134.104 80.504 134.029 80.296 133.88 80.136C133.741 79.9653 133.496 79.8213 133.144 79.704C132.803 79.576 132.291 79.4373 131.608 79.288C130.68 79.0853 130.019 78.792 129.624 78.408C129.24 78.024 129.048 77.528 129.048 76.92C129.048 76.5147 129.165 76.1307 129.4 75.768C129.645 75.3947 129.997 75.096 130.456 74.872C130.925 74.6373 131.485 74.52 132.136 74.52C132.819 74.52 133.4 74.632 133.88 74.856C134.36 75.08 134.717 75.3467 134.952 75.656C135.197 75.9547 135.32 76.2053 135.32 76.408C135.32 76.504 135.283 76.584 135.208 76.648C135.144 76.712 135.064 76.744 134.968 76.744H134.296C134.168 76.744 134.061 76.6907 133.976 76.584C133.805 76.3813 133.656 76.2267 133.528 76.12C133.411 76.0027 133.235 75.9013 133 75.816C132.776 75.7307 132.488 75.688 132.136 75.688C131.624 75.688 131.229 75.8 130.952 76.024C130.675 76.2373 130.536 76.52 130.536 76.872C130.536 77.096 130.595 77.288 130.712 77.448C130.829 77.5973 131.053 77.736 131.384 77.864C131.725 77.992 132.216 78.1253 132.856 78.264C133.869 78.4773 134.584 78.7867 135 79.192C135.427 79.5867 135.64 80.0933 135.64 80.712C135.64 81.1707 135.507 81.5867 135.24 81.96C134.973 82.3333 134.579 82.6267 134.056 82.84C133.544 83.0533 132.931 83.16 132.216 83.16ZM140.884 83C139.199 83 138.356 82.0613 138.356 80.184V75.96H137.108C137.002 75.96 136.911 75.928 136.836 75.864C136.772 75.7893 136.74 75.6987 136.74 75.592V75.048C136.74 74.9413 136.772 74.856 136.836 74.792C136.911 74.7173 137.002 74.68 137.108 74.68H138.356V72.008C138.356 71.9013 138.388 71.816 138.452 71.752C138.527 71.6773 138.618 71.64 138.724 71.64H139.476C139.583 71.64 139.668 71.6773 139.732 71.752C139.807 71.816 139.844 71.9013 139.844 72.008V74.68H141.828C141.935 74.68 142.02 74.7173 142.084 74.792C142.159 74.856 142.196 74.9413 142.196 75.048V75.592C142.196 75.6987 142.159 75.7893 142.084 75.864C142.02 75.928 141.935 75.96 141.828 75.96H139.844V80.072C139.844 80.6053 139.935 81.0107 140.116 81.288C140.298 81.5547 140.596 81.688 141.012 81.688H141.988C142.095 81.688 142.18 81.7253 142.244 81.8C142.319 81.864 142.356 81.9493 142.356 82.056V82.632C142.356 82.7387 142.319 82.8293 142.244 82.904C142.18 82.968 142.095 83 141.988 83H140.884ZM147.374 83.16C146.276 83.16 145.396 82.824 144.734 82.152C144.084 81.4693 143.726 80.5413 143.662 79.368L143.646 78.824L143.662 78.296C143.737 77.144 144.1 76.2267 144.75 75.544C145.412 74.8613 146.281 74.52 147.358 74.52C148.542 74.52 149.46 74.8987 150.11 75.656C150.761 76.4027 151.086 77.416 151.086 78.696V78.968C151.086 79.0747 151.049 79.1653 150.974 79.24C150.91 79.304 150.825 79.336 150.718 79.336H145.182V79.48C145.214 80.1733 145.422 80.7653 145.806 81.256C146.201 81.736 146.718 81.976 147.358 81.976C147.849 81.976 148.249 81.88 148.558 81.688C148.878 81.4853 149.113 81.2773 149.262 81.064C149.358 80.936 149.428 80.8613 149.47 80.84C149.524 80.808 149.614 80.792 149.742 80.792H150.526C150.622 80.792 150.702 80.8187 150.766 80.872C150.83 80.9253 150.862 81 150.862 81.096C150.862 81.3307 150.713 81.6133 150.414 81.944C150.126 82.2747 149.716 82.5627 149.182 82.808C148.66 83.0427 148.057 83.16 147.374 83.16ZM149.566 78.232V78.184C149.566 77.448 149.364 76.8507 148.958 76.392C148.564 75.9227 148.03 75.688 147.358 75.688C146.686 75.688 146.153 75.9227 145.758 76.392C145.374 76.8507 145.182 77.448 145.182 78.184V78.232H149.566ZM156.2 83.16C155.09 83.16 154.253 82.7973 153.688 82.072C153.122 81.3467 152.824 80.4293 152.792 79.32L152.776 78.84L152.792 78.36C152.824 77.2613 153.122 76.3493 153.688 75.624C154.253 74.888 155.09 74.52 156.2 74.52C157.298 74.52 158.162 74.9093 158.792 75.688V72.008C158.792 71.9013 158.824 71.816 158.888 71.752C158.962 71.6773 159.053 71.64 159.16 71.64H159.928C160.034 71.64 160.12 71.6773 160.184 71.752C160.258 71.816 160.296 71.9013 160.296 72.008V82.632C160.296 82.7387 160.258 82.8293 160.184 82.904C160.12 82.968 160.034 83 159.928 83H159.208C159.101 83 159.01 82.968 158.936 82.904C158.872 82.8293 158.84 82.7387 158.84 82.632V81.96C158.221 82.76 157.341 83.16 156.2 83.16ZM156.536 81.864C157.272 81.864 157.821 81.624 158.184 81.144C158.557 80.6533 158.76 80.072 158.792 79.4C158.802 79.2827 158.808 79.08 158.808 78.792C158.808 78.4933 158.802 78.2853 158.792 78.168C158.77 77.5387 158.568 76.9893 158.184 76.52C157.8 76.0507 157.25 75.816 156.536 75.816C155.778 75.816 155.224 76.0507 154.872 76.52C154.53 76.9893 154.344 77.608 154.312 78.376L154.296 78.84C154.296 80.856 155.042 81.864 156.536 81.864ZM168.763 83C168.486 83 168.32 82.856 168.267 82.568L166.203 72.296C166.192 72.2427 166.187 72.184 166.187 72.12C166.187 72.0347 166.219 71.96 166.283 71.896C166.347 71.832 166.422 71.8 166.507 71.8H167.339C167.563 71.8 167.691 71.8907 167.723 72.072L169.355 80.328L171.083 74.664C171.179 74.408 171.35 74.28 171.595 74.28H172.187C172.326 74.28 172.432 74.3173 172.507 74.392C172.592 74.4667 172.651 74.5573 172.683 74.664L174.427 80.328L176.043 72.072C176.075 71.8907 176.208 71.8 176.443 71.8H177.275C177.36 71.8 177.435 71.832 177.499 71.896C177.563 71.96 177.595 72.0347 177.595 72.12L177.579 72.296L175.515 82.568C175.451 82.856 175.286 83 175.019 83H174.395C174.118 83 173.942 82.8667 173.867 82.6L171.883 76.504L169.915 82.6C169.83 82.8667 169.654 83 169.387 83H168.763ZM181.6 83.16C181.078 83.16 180.592 83.0533 180.144 82.84C179.696 82.6267 179.339 82.3387 179.072 81.976C178.816 81.6027 178.688 81.192 178.688 80.744C178.688 80.04 178.976 79.464 179.552 79.016C180.139 78.5573 180.928 78.2587 181.92 78.12L184.304 77.784V77.32C184.304 76.232 183.68 75.688 182.432 75.688C181.963 75.688 181.579 75.7893 181.28 75.992C180.982 76.184 180.758 76.4133 180.608 76.68C180.576 76.776 180.534 76.8453 180.48 76.888C180.438 76.9307 180.374 76.952 180.288 76.952H179.6C179.504 76.952 179.419 76.92 179.344 76.856C179.28 76.7813 179.248 76.696 179.248 76.6C179.259 76.344 179.376 76.056 179.6 75.736C179.835 75.4053 180.192 75.1227 180.672 74.888C181.152 74.6427 181.744 74.52 182.448 74.52C183.643 74.52 184.502 74.8027 185.024 75.368C185.547 75.9227 185.808 76.616 185.808 77.448V82.632C185.808 82.7387 185.771 82.8293 185.696 82.904C185.632 82.968 185.547 83 185.44 83H184.704C184.598 83 184.507 82.968 184.432 82.904C184.368 82.8293 184.336 82.7387 184.336 82.632V81.944C184.102 82.2853 183.76 82.5733 183.312 82.808C182.864 83.0427 182.294 83.16 181.6 83.16ZM181.936 81.96C182.63 81.96 183.195 81.736 183.632 81.288C184.08 80.8293 184.304 80.1733 184.304 79.32V78.872L182.448 79.144C181.691 79.2507 181.12 79.432 180.736 79.688C180.352 79.9333 180.16 80.248 180.16 80.632C180.16 81.0587 180.336 81.3893 180.688 81.624C181.04 81.848 181.456 81.96 181.936 81.96ZM188.652 83C188.546 83 188.455 82.968 188.38 82.904C188.316 82.8293 188.284 82.7387 188.284 82.632V72.008C188.284 71.9013 188.316 71.816 188.38 71.752C188.455 71.6773 188.546 71.64 188.652 71.64H189.404C189.511 71.64 189.596 71.6773 189.66 71.752C189.735 71.816 189.772 71.9013 189.772 72.008V82.632C189.772 82.7387 189.735 82.8293 189.66 82.904C189.596 82.968 189.511 83 189.404 83H188.652ZM192.703 83C192.596 83 192.506 82.968 192.431 82.904C192.367 82.8293 192.335 82.7387 192.335 82.632V72.008C192.335 71.9013 192.367 71.816 192.431 71.752C192.506 71.6773 192.596 71.64 192.703 71.64H193.455C193.562 71.64 193.647 71.6773 193.711 71.752C193.786 71.816 193.823 71.9013 193.823 72.008V82.632C193.823 82.7387 193.786 82.8293 193.711 82.904C193.647 82.968 193.562 83 193.455 83H192.703ZM199.698 83.16C198.599 83.16 197.719 82.824 197.058 82.152C196.407 81.4693 196.05 80.5413 195.986 79.368L195.97 78.824L195.986 78.296C196.06 77.144 196.423 76.2267 197.074 75.544C197.735 74.8613 198.604 74.52 199.682 74.52C200.866 74.52 201.783 74.8987 202.434 75.656C203.084 76.4027 203.41 77.416 203.41 78.696V78.968C203.41 79.0747 203.372 79.1653 203.298 79.24C203.234 79.304 203.148 79.336 203.042 79.336H197.506V79.48C197.538 80.1733 197.746 80.7653 198.13 81.256C198.524 81.736 199.042 81.976 199.682 81.976C200.172 81.976 200.572 81.88 200.882 81.688C201.202 81.4853 201.436 81.2773 201.586 81.064C201.682 80.936 201.751 80.8613 201.794 80.84C201.847 80.808 201.938 80.792 202.066 80.792H202.85C202.946 80.792 203.026 80.8187 203.09 80.872C203.154 80.9253 203.186 81 203.186 81.096C203.186 81.3307 203.036 81.6133 202.738 81.944C202.45 82.2747 202.039 82.5627 201.506 82.808C200.983 83.0427 200.38 83.16 199.698 83.16ZM201.89 78.232V78.184C201.89 77.448 201.687 76.8507 201.282 76.392C200.887 75.9227 200.354 75.688 199.682 75.688C199.01 75.688 198.476 75.9227 198.082 76.392C197.698 76.8507 197.506 77.448 197.506 78.184V78.232H201.89ZM208.684 83C206.999 83 206.156 82.0613 206.156 80.184V75.96H204.908C204.801 75.96 204.711 75.928 204.636 75.864C204.572 75.7893 204.54 75.6987 204.54 75.592V75.048C204.54 74.9413 204.572 74.856 204.636 74.792C204.711 74.7173 204.801 74.68 204.908 74.68H206.156V72.008C206.156 71.9013 206.188 71.816 206.252 71.752C206.327 71.6773 206.417 71.64 206.524 71.64H207.276C207.383 71.64 207.468 71.6773 207.532 71.752C207.607 71.816 207.644 71.9013 207.644 72.008V74.68H209.628C209.735 74.68 209.82 74.7173 209.884 74.792C209.959 74.856 209.996 74.9413 209.996 75.048V75.592C209.996 75.6987 209.959 75.7893 209.884 75.864C209.82 75.928 209.735 75.96 209.628 75.96H207.644V80.072C207.644 80.6053 207.735 81.0107 207.916 81.288C208.097 81.5547 208.396 81.688 208.812 81.688H209.788C209.895 81.688 209.98 81.7253 210.044 81.8C210.119 81.864 210.156 81.9493 210.156 82.056V82.632C210.156 82.7387 210.119 82.8293 210.044 82.904C209.98 82.968 209.895 83 209.788 83H208.684ZM214.726 83.16C213.979 83.16 213.35 83.0427 212.838 82.808C212.337 82.5627 211.958 82.2853 211.702 81.976C211.457 81.6667 211.334 81.4107 211.334 81.208C211.334 81.1013 211.371 81.0213 211.446 80.968C211.531 80.904 211.617 80.872 211.702 80.872H212.422C212.529 80.872 212.625 80.9253 212.71 81.032C212.966 81.3307 213.243 81.5653 213.542 81.736C213.841 81.9067 214.241 81.992 214.742 81.992C215.297 81.992 215.745 81.8853 216.086 81.672C216.438 81.448 216.614 81.144 216.614 80.76C216.614 80.504 216.539 80.296 216.39 80.136C216.251 79.9653 216.006 79.8213 215.654 79.704C215.313 79.576 214.801 79.4373 214.118 79.288C213.19 79.0853 212.529 78.792 212.134 78.408C211.75 78.024 211.558 77.528 211.558 76.92C211.558 76.5147 211.675 76.1307 211.91 75.768C212.155 75.3947 212.507 75.096 212.966 74.872C213.435 74.6373 213.995 74.52 214.646 74.52C215.329 74.52 215.91 74.632 216.39 74.856C216.87 75.08 217.227 75.3467 217.462 75.656C217.707 75.9547 217.83 76.2053 217.83 76.408C217.83 76.504 217.793 76.584 217.718 76.648C217.654 76.712 217.574 76.744 217.478 76.744H216.806C216.678 76.744 216.571 76.6907 216.486 76.584C216.315 76.3813 216.166 76.2267 216.038 76.12C215.921 76.0027 215.745 75.9013 215.51 75.816C215.286 75.7307 214.998 75.688 214.646 75.688C214.134 75.688 213.739 75.8 213.462 76.024C213.185 76.2373 213.046 76.52 213.046 76.872C213.046 77.096 213.105 77.288 213.222 77.448C213.339 77.5973 213.563 77.736 213.894 77.864C214.235 77.992 214.726 78.1253 215.366 78.264C216.379 78.4773 217.094 78.7867 217.51 79.192C217.937 79.5867 218.15 80.0933 218.15 80.712C218.15 81.1707 218.017 81.5867 217.75 81.96C217.483 82.3333 217.089 82.6267 216.566 82.84C216.054 83.0533 215.441 83.16 214.726 83.16ZM224.82 83C224.713 83 224.623 82.968 224.548 82.904C224.484 82.8293 224.452 82.7387 224.452 82.632V72.168C224.452 72.0613 224.484 71.976 224.548 71.912C224.623 71.8373 224.713 71.8 224.82 71.8H225.668C225.775 71.8 225.86 71.8373 225.924 71.912C225.999 71.976 226.036 72.0613 226.036 72.168V82.632C226.036 82.7387 225.999 82.8293 225.924 82.904C225.86 82.968 225.775 83 225.668 83H224.82ZM229.147 83C229.04 83 228.95 82.968 228.875 82.904C228.811 82.8293 228.779 82.7387 228.779 82.632V75.048C228.779 74.9413 228.811 74.856 228.875 74.792C228.95 74.7173 229.04 74.68 229.147 74.68H229.899C230.006 74.68 230.091 74.7173 230.155 74.792C230.23 74.856 230.267 74.9413 230.267 75.048V75.752C230.576 75.3573 230.939 75.0533 231.355 74.84C231.782 74.6267 232.31 74.52 232.939 74.52C233.963 74.52 234.758 74.8507 235.323 75.512C235.899 76.1627 236.187 77.032 236.187 78.12V82.632C236.187 82.7387 236.15 82.8293 236.075 82.904C236.011 82.968 235.926 83 235.819 83H235.019C234.912 83 234.822 82.968 234.747 82.904C234.683 82.8293 234.651 82.7387 234.651 82.632V78.2C234.651 77.4427 234.464 76.856 234.091 76.44C233.728 76.024 233.2 75.816 232.507 75.816C231.835 75.816 231.302 76.0293 230.907 76.456C230.512 76.872 230.315 77.4533 230.315 78.2V82.632C230.315 82.7387 230.278 82.8293 230.203 82.904C230.139 82.968 230.054 83 229.947 83H229.147ZM241.304 83C241.026 83 240.829 82.8667 240.712 82.6L237.752 75.176L237.72 75.016C237.72 74.92 237.752 74.84 237.816 74.776C237.88 74.712 237.96 74.68 238.056 74.68H238.824C239.005 74.68 239.138 74.7707 239.224 74.952L241.656 81.256L244.088 74.952C244.184 74.7707 244.312 74.68 244.472 74.68H245.256C245.341 74.68 245.416 74.712 245.48 74.776C245.554 74.84 245.592 74.92 245.592 75.016L245.56 75.176L242.584 82.6C242.466 82.8667 242.269 83 241.992 83H241.304ZM250.458 83.16C249.36 83.16 248.48 82.824 247.818 82.152C247.168 81.4693 246.81 80.5413 246.746 79.368L246.73 78.824L246.746 78.296C246.821 77.144 247.184 76.2267 247.834 75.544C248.496 74.8613 249.365 74.52 250.442 74.52C251.626 74.52 252.544 74.8987 253.194 75.656C253.845 76.4027 254.17 77.416 254.17 78.696V78.968C254.17 79.0747 254.133 79.1653 254.058 79.24C253.994 79.304 253.909 79.336 253.802 79.336H248.266V79.48C248.298 80.1733 248.506 80.7653 248.89 81.256C249.285 81.736 249.802 81.976 250.442 81.976C250.933 81.976 251.333 81.88 251.642 81.688C251.962 81.4853 252.197 81.2773 252.346 81.064C252.442 80.936 252.512 80.8613 252.554 80.84C252.608 80.808 252.698 80.792 252.826 80.792H253.61C253.706 80.792 253.786 80.8187 253.85 80.872C253.914 80.9253 253.946 81 253.946 81.096C253.946 81.3307 253.797 81.6133 253.498 81.944C253.21 82.2747 252.8 82.5627 252.266 82.808C251.744 83.0427 251.141 83.16 250.458 83.16ZM252.65 78.232V78.184C252.65 77.448 252.448 76.8507 252.042 76.392C251.648 75.9227 251.114 75.688 250.442 75.688C249.77 75.688 249.237 75.9227 248.842 76.392C248.458 76.8507 248.266 77.448 248.266 78.184V78.232H252.65ZM259.123 83.16C258.377 83.16 257.747 83.0427 257.235 82.808C256.734 82.5627 256.355 82.2853 256.099 81.976C255.854 81.6667 255.731 81.4107 255.731 81.208C255.731 81.1013 255.769 81.0213 255.843 80.968C255.929 80.904 256.014 80.872 256.099 80.872H256.819C256.926 80.872 257.022 80.9253 257.107 81.032C257.363 81.3307 257.641 81.5653 257.939 81.736C258.238 81.9067 258.638 81.992 259.139 81.992C259.694 81.992 260.142 81.8853 260.483 81.672C260.835 81.448 261.011 81.144 261.011 80.76C261.011 80.504 260.937 80.296 260.787 80.136C260.649 79.9653 260.403 79.8213 260.051 79.704C259.71 79.576 259.198 79.4373 258.515 79.288C257.587 79.0853 256.926 78.792 256.531 78.408C256.147 78.024 255.955 77.528 255.955 76.92C255.955 76.5147 256.073 76.1307 256.307 75.768C256.553 75.3947 256.905 75.096 257.363 74.872C257.833 74.6373 258.393 74.52 259.043 74.52C259.726 74.52 260.307 74.632 260.787 74.856C261.267 75.08 261.625 75.3467 261.859 75.656C262.105 75.9547 262.227 76.2053 262.227 76.408C262.227 76.504 262.19 76.584 262.115 76.648C262.051 76.712 261.971 76.744 261.875 76.744H261.203C261.075 76.744 260.969 76.6907 260.883 76.584C260.713 76.3813 260.563 76.2267 260.435 76.12C260.318 76.0027 260.142 75.9013 259.907 75.816C259.683 75.7307 259.395 75.688 259.043 75.688C258.531 75.688 258.137 75.8 257.859 76.024C257.582 76.2373 257.443 76.52 257.443 76.872C257.443 77.096 257.502 77.288 257.619 77.448C257.737 77.5973 257.961 77.736 258.291 77.864C258.633 77.992 259.123 78.1253 259.763 78.264C260.777 78.4773 261.491 78.7867 261.907 79.192C262.334 79.5867 262.547 80.0933 262.547 80.712C262.547 81.1707 262.414 81.5867 262.147 81.96C261.881 82.3333 261.486 82.6267 260.963 82.84C260.451 83.0533 259.838 83.16 259.123 83.16ZM267.792 83C266.107 83 265.264 82.0613 265.264 80.184V75.96H264.016C263.909 75.96 263.819 75.928 263.744 75.864C263.68 75.7893 263.648 75.6987 263.648 75.592V75.048C263.648 74.9413 263.68 74.856 263.744 74.792C263.819 74.7173 263.909 74.68 264.016 74.68H265.264V72.008C265.264 71.9013 265.296 71.816 265.36 71.752C265.435 71.6773 265.525 71.64 265.632 71.64H266.384C266.491 71.64 266.576 71.6773 266.64 71.752C266.715 71.816 266.752 71.9013 266.752 72.008V74.68H268.736C268.843 74.68 268.928 74.7173 268.992 74.792C269.067 74.856 269.104 74.9413 269.104 75.048V75.592C269.104 75.6987 269.067 75.7893 268.992 75.864C268.928 75.928 268.843 75.96 268.736 75.96H266.752V80.072C266.752 80.6053 266.843 81.0107 267.024 81.288C267.205 81.5547 267.504 81.688 267.92 81.688H268.896C269.003 81.688 269.088 81.7253 269.152 81.8C269.227 81.864 269.264 81.9493 269.264 82.056V82.632C269.264 82.7387 269.227 82.8293 269.152 82.904C269.088 82.968 269.003 83 268.896 83H267.792ZM274.362 83.16C273.189 83.16 272.277 82.8293 271.626 82.168C270.986 81.5067 270.645 80.6267 270.602 79.528L270.586 78.84L270.602 78.152C270.645 77.064 270.991 76.1893 271.642 75.528C272.293 74.856 273.199 74.52 274.362 74.52C275.525 74.52 276.431 74.856 277.082 75.528C277.733 76.1893 278.079 77.064 278.122 78.152C278.133 78.2693 278.138 78.4987 278.138 78.84C278.138 79.1813 278.133 79.4107 278.122 79.528C278.079 80.6267 277.733 81.5067 277.082 82.168C276.442 82.8293 275.535 83.16 274.362 83.16ZM274.362 81.928C275.034 81.928 275.562 81.7147 275.946 81.288C276.341 80.8613 276.554 80.248 276.586 79.448C276.597 79.3413 276.602 79.1387 276.602 78.84C276.602 78.5413 276.597 78.3387 276.586 78.232C276.554 77.432 276.341 76.8187 275.946 76.392C275.562 75.9653 275.034 75.752 274.362 75.752C273.69 75.752 273.157 75.9653 272.762 76.392C272.367 76.8187 272.159 77.432 272.138 78.232L272.122 78.84L272.138 79.448C272.159 80.248 272.367 80.8613 272.762 81.288C273.157 81.7147 273.69 81.928 274.362 81.928ZM280.669 83C280.563 83 280.472 82.968 280.397 82.904C280.333 82.8293 280.301 82.7387 280.301 82.632V75.064C280.301 74.9573 280.333 74.8667 280.397 74.792C280.472 74.7173 280.563 74.68 280.669 74.68H281.405C281.512 74.68 281.603 74.7173 281.677 74.792C281.752 74.8667 281.789 74.9573 281.789 75.064V75.768C282.227 75.0427 282.973 74.68 284.029 74.68H284.653C284.76 74.68 284.845 74.7173 284.909 74.792C284.984 74.856 285.021 74.9413 285.021 75.048V75.704C285.021 75.8107 284.984 75.896 284.909 75.96C284.845 76.024 284.76 76.056 284.653 76.056H283.693C283.117 76.056 282.664 76.2267 282.333 76.568C282.003 76.8987 281.837 77.352 281.837 77.928V82.632C281.837 82.7387 281.8 82.8293 281.725 82.904C281.651 82.968 281.56 83 281.453 83H280.669Z" fill="#E0E0E0"/>
<path d="M115.08 44C114.813 44 114.573 43.9067 114.36 43.72C114.173 43.5067 114.08 43.2667 114.08 43V23.96L108.6 28.16C108.413 28.32 108.213 28.4 108 28.4C107.707 28.4 107.44 28.24 107.2 27.92L104.84 24.84C104.707 24.6267 104.64 24.4267 104.64 24.24C104.64 23.8667 104.8 23.5867 105.12 23.4L114.32 16.28C114.613 16.0933 114.933 16 115.28 16H120.28C120.573 16 120.813 16.0933 121 16.28C121.187 16.4667 121.28 16.7067 121.28 17V43C121.28 43.2667 121.187 43.5067 121 43.72C120.813 43.9067 120.573 44 120.28 44H115.08ZM137.443 44.4C133.763 44.3733 130.976 43.4 129.083 41.48C127.189 39.5333 126.163 36.9867 126.003 33.84C125.949 32.4 125.923 31.12 125.923 30C125.923 28.8533 125.949 27.5333 126.003 26.04C126.109 24.04 126.589 22.2667 127.443 20.72C128.323 19.1467 129.603 17.9067 131.283 17C132.963 16.0667 135.016 15.6 137.443 15.6C141.043 15.6267 143.816 16.6 145.763 18.52C147.709 20.44 148.763 22.9467 148.923 26.04C148.976 27.5333 149.003 28.8533 149.003 30C149.003 31.12 148.976 32.4 148.923 33.84C148.736 36.9867 147.696 39.5333 145.803 41.48C143.909 43.4 141.123 44.3733 137.443 44.4ZM137.443 38.6C138.749 38.6 139.723 38.1733 140.363 37.32C141.029 36.44 141.389 35.2133 141.443 33.64C141.496 32.8667 141.523 31.6267 141.523 29.92C141.523 28.2133 141.496 27 141.443 26.28C141.389 24.76 141.043 23.56 140.403 22.68C139.763 21.8 138.776 21.3467 137.443 21.32C136.136 21.3467 135.149 21.8 134.483 22.68C133.843 23.56 133.496 24.76 133.443 26.28C133.416 27 133.403 28.2133 133.403 29.92C133.403 31.6267 133.416 32.8667 133.443 33.64C133.576 36.9467 134.909 38.6 137.443 38.6ZM154.87 44C154.604 44 154.364 43.9067 154.15 43.72C153.964 43.5067 153.87 43.2667 153.87 43V17C153.87 16.7067 153.964 16.4667 154.15 16.28C154.364 16.0933 154.604 16 154.87 16H159.19C159.83 16 160.297 16.2933 160.59 16.88L167.63 29.48L174.67 16.88C174.964 16.2933 175.43 16 176.07 16H180.35C180.644 16 180.884 16.0933 181.07 16.28C181.284 16.4667 181.39 16.7067 181.39 17V43C181.39 43.2933 181.284 43.5333 181.07 43.72C180.884 43.9067 180.644 44 180.35 44H175.59C175.297 44 175.044 43.9067 174.83 43.72C174.644 43.5333 174.55 43.2933 174.55 43V28L170.07 36.36C169.724 36.9733 169.257 37.28 168.67 37.28H166.59C166.244 37.28 165.964 37.2 165.75 37.04C165.537 36.88 165.35 36.6533 165.19 36.36L160.67 28V43C160.67 43.2667 160.577 43.5067 160.39 43.72C160.204 43.9067 159.964 44 159.67 44H154.87ZM194.715 42.68C194.449 42.68 194.209 42.5867 193.995 42.4C193.809 42.1867 193.715 41.9467 193.715 41.68V34.36H186.595C186.302 34.36 186.049 34.2667 185.835 34.08C185.649 33.8933 185.555 33.6533 185.555 33.36V30.44C185.555 30.1467 185.649 29.9067 185.835 29.72C186.049 29.5067 186.302 29.4 186.595 29.4H193.715V22.32C193.715 22.0267 193.809 21.7867 193.995 21.6C194.209 21.4133 194.449 21.32 194.715 21.32H197.995C198.289 21.32 198.529 21.4133 198.715 21.6C198.902 21.7867 198.995 22.0267 198.995 22.32V29.4H206.075C206.369 29.4 206.609 29.5067 206.795 29.72C206.982 29.9067 207.075 30.1467 207.075 30.44V33.36C207.075 33.6533 206.982 33.8933 206.795 34.08C206.609 34.2667 206.369 34.36 206.075 34.36H198.995V41.68C198.995 41.9467 198.902 42.1867 198.715 42.4C198.529 42.5867 198.289 42.68 197.995 42.68H194.715Z" fill="white"/>
<circle opacity="0.1" cx="40" cy="40" r="40" fill="white"/>
<path d="M45.9875 25.0453C44.4672 23.4039 42.3438 22.5 40 22.5C37.6438 22.5 35.5133 23.3984 34 25.0297C32.4703 26.6789 31.725 28.9203 31.9 31.3406C32.2469 36.1156 35.8805 40 40 40C44.1195 40 47.7469 36.1164 48.0992 31.3422C48.2766 28.9437 47.5266 26.707 45.9875 25.0453Z" fill="#3671E9"/>
<path d="M53.7499 57.5H26.2499C25.8899 57.5047 25.5335 57.4291 25.2064 57.2786C24.8794 57.1282 24.59 56.9068 24.3593 56.6305C23.8515 56.0234 23.6468 55.1945 23.7983 54.3562C24.4577 50.6984 26.5155 47.6258 29.7499 45.4687C32.6233 43.5539 36.2632 42.5 39.9999 42.5C43.7366 42.5 47.3765 43.5547 50.2499 45.4687C53.4843 47.625 55.5421 50.6977 56.2015 54.3555C56.353 55.1937 56.1483 56.0227 55.6405 56.6297C55.4099 56.9062 55.1205 57.1277 54.7935 57.2783C54.4664 57.4288 54.1099 57.5046 53.7499 57.5Z" fill="#3671E9"/>
</svg>
