<svg width="334" height="92" viewBox="0 0 334 92" fill="none" xmlns="http://www.w3.org/2000/svg">
<path d="M109.424 83.16C107.995 83.16 106.907 82.776 106.16 82.008C105.424 81.24 105.029 80.1787 104.976 78.824C104.965 78.536 104.96 78.0667 104.96 77.416C104.96 76.7547 104.965 76.2747 104.976 75.976C105.029 74.632 105.429 73.576 106.176 72.808C106.923 72.0293 108.005 71.64 109.424 71.64C110.373 71.64 111.179 71.8107 111.84 72.152C112.501 72.4827 113.003 72.92 113.344 73.464C113.685 74.008 113.872 74.5893 113.904 75.208V75.24C113.904 75.3253 113.867 75.4 113.792 75.464C113.728 75.5173 113.653 75.544 113.568 75.544H112.688C112.475 75.544 112.341 75.4213 112.288 75.176C112.107 74.376 111.781 73.816 111.312 73.496C110.843 73.1653 110.213 73 109.424 73C107.589 73 106.64 74.0187 106.576 76.056C106.565 76.344 106.56 76.7867 106.56 77.384C106.56 77.9813 106.565 78.4347 106.576 78.744C106.64 80.7813 107.589 81.8 109.424 81.8C110.213 81.8 110.843 81.64 111.312 81.32C111.792 80.9893 112.117 80.424 112.288 79.624C112.32 79.4853 112.368 79.3893 112.432 79.336C112.496 79.2827 112.581 79.256 112.688 79.256H113.568C113.664 79.256 113.744 79.288 113.808 79.352C113.883 79.4053 113.915 79.48 113.904 79.576C113.872 80.2053 113.685 80.792 113.344 81.336C113.003 81.88 112.501 82.3227 111.84 82.664C111.179 82.9947 110.373 83.16 109.424 83.16ZM119.408 83.16C118.235 83.16 117.323 82.8293 116.672 82.168C116.032 81.5067 115.691 80.6267 115.648 79.528L115.632 78.84L115.648 78.152C115.691 77.064 116.038 76.1893 116.688 75.528C117.339 74.856 118.246 74.52 119.408 74.52C120.571 74.52 121.478 74.856 122.128 75.528C122.779 76.1893 123.126 77.064 123.168 78.152C123.179 78.2693 123.184 78.4987 123.184 78.84C123.184 79.1813 123.179 79.4107 123.168 79.528C123.126 80.6267 122.779 81.5067 122.128 82.168C121.488 82.8293 120.582 83.16 119.408 83.16ZM119.408 81.928C120.08 81.928 120.608 81.7147 120.992 81.288C121.387 80.8613 121.6 80.248 121.632 79.448C121.643 79.3413 121.648 79.1387 121.648 78.84C121.648 78.5413 121.643 78.3387 121.632 78.232C121.6 77.432 121.387 76.8187 120.992 76.392C120.608 75.9653 120.08 75.752 119.408 75.752C118.736 75.752 118.203 75.9653 117.808 76.392C117.414 76.8187 117.206 77.432 117.184 78.232L117.168 78.84L117.184 79.448C117.206 80.248 117.414 80.8613 117.808 81.288C118.203 81.7147 118.736 81.928 119.408 81.928ZM128.452 83.16C127.438 83.16 126.654 82.8347 126.1 82.184C125.545 81.5227 125.268 80.648 125.268 79.56V75.048C125.268 74.9413 125.3 74.856 125.364 74.792C125.438 74.7173 125.529 74.68 125.636 74.68H126.436C126.542 74.68 126.628 74.7173 126.692 74.792C126.766 74.856 126.804 74.9413 126.804 75.048V79.48C126.804 81.0693 127.497 81.864 128.884 81.864C129.556 81.864 130.089 81.656 130.484 81.24C130.878 80.8133 131.076 80.2267 131.076 79.48V75.048C131.076 74.9413 131.108 74.856 131.172 74.792C131.246 74.7173 131.337 74.68 131.444 74.68H132.244C132.35 74.68 132.436 74.7173 132.5 74.792C132.564 74.856 132.596 74.9413 132.596 75.048V82.632C132.596 82.7387 132.564 82.8293 132.5 82.904C132.436 82.968 132.35 83 132.244 83H131.492C131.385 83 131.294 82.968 131.22 82.904C131.156 82.8293 131.124 82.7387 131.124 82.632V81.928C130.825 82.3333 130.462 82.6427 130.036 82.856C129.609 83.0587 129.081 83.16 128.452 83.16ZM135.501 83C135.394 83 135.303 82.968 135.229 82.904C135.165 82.8293 135.133 82.7387 135.133 82.632V75.048C135.133 74.9413 135.165 74.856 135.229 74.792C135.303 74.7173 135.394 74.68 135.501 74.68H136.253C136.359 74.68 136.445 74.7173 136.509 74.792C136.583 74.856 136.621 74.9413 136.621 75.048V75.752C136.93 75.3573 137.293 75.0533 137.709 74.84C138.135 74.6267 138.663 74.52 139.293 74.52C140.317 74.52 141.111 74.8507 141.677 75.512C142.253 76.1627 142.541 77.032 142.541 78.12V82.632C142.541 82.7387 142.503 82.8293 142.429 82.904C142.365 82.968 142.279 83 142.173 83H141.373C141.266 83 141.175 82.968 141.101 82.904C141.037 82.8293 141.005 82.7387 141.005 82.632V78.2C141.005 77.4427 140.818 76.856 140.445 76.44C140.082 76.024 139.554 75.816 138.861 75.816C138.189 75.816 137.655 76.0293 137.261 76.456C136.866 76.872 136.669 77.4533 136.669 78.2V82.632C136.669 82.7387 136.631 82.8293 136.557 82.904C136.493 82.968 136.407 83 136.301 83H135.501ZM148.134 83C146.449 83 145.606 82.0613 145.606 80.184V75.96H144.358C144.252 75.96 144.161 75.928 144.086 75.864C144.022 75.7893 143.99 75.6987 143.99 75.592V75.048C143.99 74.9413 144.022 74.856 144.086 74.792C144.161 74.7173 144.252 74.68 144.358 74.68H145.606V72.008C145.606 71.9013 145.638 71.816 145.702 71.752C145.777 71.6773 145.868 71.64 145.974 71.64H146.726C146.833 71.64 146.918 71.6773 146.982 71.752C147.057 71.816 147.094 71.9013 147.094 72.008V74.68H149.078C149.185 74.68 149.27 74.7173 149.334 74.792C149.409 74.856 149.446 74.9413 149.446 75.048V75.592C149.446 75.6987 149.409 75.7893 149.334 75.864C149.27 75.928 149.185 75.96 149.078 75.96H147.094V80.072C147.094 80.6053 147.185 81.0107 147.366 81.288C147.548 81.5547 147.846 81.688 148.262 81.688H149.238C149.345 81.688 149.43 81.7253 149.494 81.8C149.569 81.864 149.606 81.9493 149.606 82.056V82.632C149.606 82.7387 149.569 82.8293 149.494 82.904C149.43 82.968 149.345 83 149.238 83H148.134ZM151.664 83C151.558 83 151.467 82.968 151.392 82.904C151.328 82.8293 151.296 82.7387 151.296 82.632V75.064C151.296 74.9573 151.328 74.8667 151.392 74.792C151.467 74.7173 151.558 74.68 151.664 74.68H152.4C152.507 74.68 152.598 74.7173 152.672 74.792C152.747 74.8667 152.784 74.9573 152.784 75.064V75.768C153.222 75.0427 153.968 74.68 155.024 74.68H155.648C155.755 74.68 155.84 74.7173 155.904 74.792C155.979 74.856 156.016 74.9413 156.016 75.048V75.704C156.016 75.8107 155.979 75.896 155.904 75.96C155.84 76.024 155.755 76.056 155.648 76.056H154.688C154.112 76.056 153.659 76.2267 153.328 76.568C152.998 76.8987 152.832 77.352 152.832 77.928V82.632C152.832 82.7387 152.795 82.8293 152.72 82.904C152.646 82.968 152.555 83 152.448 83H151.664ZM157.775 73.128C157.668 73.128 157.577 73.096 157.503 73.032C157.439 72.9573 157.407 72.8667 157.407 72.76V71.896C157.407 71.7893 157.439 71.6987 157.503 71.624C157.577 71.5493 157.668 71.512 157.775 71.512H158.783C158.889 71.512 158.98 71.5493 159.055 71.624C159.129 71.6987 159.167 71.7893 159.167 71.896V72.76C159.167 72.8667 159.129 72.9573 159.055 73.032C158.98 73.096 158.889 73.128 158.783 73.128H157.775ZM157.903 83C157.796 83 157.705 82.968 157.631 82.904C157.567 82.8293 157.535 82.7387 157.535 82.632V75.048C157.535 74.9413 157.567 74.856 157.631 74.792C157.705 74.7173 157.796 74.68 157.903 74.68H158.671C158.777 74.68 158.863 74.7173 158.927 74.792C159.001 74.856 159.039 74.9413 159.039 75.048V82.632C159.039 82.7387 159.001 82.8293 158.927 82.904C158.863 82.968 158.777 83 158.671 83H157.903ZM164.898 83.16C163.799 83.16 162.919 82.824 162.258 82.152C161.607 81.4693 161.25 80.5413 161.186 79.368L161.17 78.824L161.186 78.296C161.26 77.144 161.623 76.2267 162.274 75.544C162.935 74.8613 163.804 74.52 164.882 74.52C166.066 74.52 166.983 74.8987 167.634 75.656C168.284 76.4027 168.61 77.416 168.61 78.696V78.968C168.61 79.0747 168.572 79.1653 168.498 79.24C168.434 79.304 168.348 79.336 168.242 79.336H162.706V79.48C162.738 80.1733 162.946 80.7653 163.33 81.256C163.724 81.736 164.242 81.976 164.882 81.976C165.372 81.976 165.772 81.88 166.082 81.688C166.402 81.4853 166.636 81.2773 166.786 81.064C166.882 80.936 166.951 80.8613 166.994 80.84C167.047 80.808 167.138 80.792 167.266 80.792H168.05C168.146 80.792 168.226 80.8187 168.29 80.872C168.354 80.9253 168.386 81 168.386 81.096C168.386 81.3307 168.236 81.6133 167.938 81.944C167.65 82.2747 167.239 82.5627 166.706 82.808C166.183 83.0427 165.58 83.16 164.898 83.16ZM167.09 78.232V78.184C167.09 77.448 166.887 76.8507 166.482 76.392C166.087 75.9227 165.554 75.688 164.882 75.688C164.21 75.688 163.676 75.9227 163.282 76.392C162.898 76.8507 162.706 77.448 162.706 78.184V78.232H167.09ZM173.563 83.16C172.816 83.16 172.187 83.0427 171.675 82.808C171.173 82.5627 170.795 82.2853 170.539 81.976C170.293 81.6667 170.171 81.4107 170.171 81.208C170.171 81.1013 170.208 81.0213 170.283 80.968C170.368 80.904 170.453 80.872 170.539 80.872H171.259C171.365 80.872 171.461 80.9253 171.547 81.032C171.803 81.3307 172.08 81.5653 172.379 81.736C172.677 81.9067 173.077 81.992 173.579 81.992C174.133 81.992 174.581 81.8853 174.923 81.672C175.275 81.448 175.451 81.144 175.451 80.76C175.451 80.504 175.376 80.296 175.227 80.136C175.088 79.9653 174.843 79.8213 174.491 79.704C174.149 79.576 173.637 79.4373 172.955 79.288C172.027 79.0853 171.365 78.792 170.971 78.408C170.587 78.024 170.395 77.528 170.395 76.92C170.395 76.5147 170.512 76.1307 170.747 75.768C170.992 75.3947 171.344 75.096 171.803 74.872C172.272 74.6373 172.832 74.52 173.483 74.52C174.165 74.52 174.747 74.632 175.227 74.856C175.707 75.08 176.064 75.3467 176.299 75.656C176.544 75.9547 176.667 76.2053 176.667 76.408C176.667 76.504 176.629 76.584 176.555 76.648C176.491 76.712 176.411 76.744 176.315 76.744H175.643C175.515 76.744 175.408 76.6907 175.323 76.584C175.152 76.3813 175.003 76.2267 174.875 76.12C174.757 76.0027 174.581 75.9013 174.347 75.816C174.123 75.7307 173.835 75.688 173.483 75.688C172.971 75.688 172.576 75.8 172.299 76.024C172.021 76.2373 171.883 76.52 171.883 76.872C171.883 77.096 171.941 77.288 172.059 77.448C172.176 77.5973 172.4 77.736 172.731 77.864C173.072 77.992 173.563 78.1253 174.203 78.264C175.216 78.4773 175.931 78.7867 176.347 79.192C176.773 79.5867 176.987 80.0933 176.987 80.712C176.987 81.1707 176.853 81.5867 176.587 81.96C176.32 82.3333 175.925 82.6267 175.403 82.84C174.891 83.0533 174.277 83.16 173.563 83.16ZM186.889 83.16C186.004 83.16 185.236 83.0213 184.585 82.744C183.945 82.4667 183.454 82.104 183.113 81.656C182.772 81.1973 182.59 80.7067 182.569 80.184C182.569 80.0987 182.601 80.024 182.665 79.96C182.74 79.8853 182.825 79.848 182.921 79.848H183.737C183.94 79.848 184.078 79.9547 184.153 80.168C184.249 80.616 184.521 81 184.969 81.32C185.428 81.64 186.068 81.8 186.889 81.8C187.774 81.8 188.441 81.6453 188.889 81.336C189.337 81.016 189.561 80.5733 189.561 80.008C189.561 79.6453 189.449 79.352 189.225 79.128C189.012 78.904 188.692 78.7067 188.265 78.536C187.838 78.3653 187.198 78.152 186.345 77.896C185.513 77.6613 184.852 77.4107 184.361 77.144C183.87 76.8773 183.502 76.5467 183.257 76.152C183.012 75.7573 182.889 75.2613 182.889 74.664C182.889 74.088 183.044 73.5707 183.353 73.112C183.673 72.6533 184.126 72.296 184.713 72.04C185.3 71.7733 185.998 71.64 186.809 71.64C187.641 71.64 188.356 71.7893 188.953 72.088C189.55 72.376 190.004 72.744 190.313 73.192C190.622 73.64 190.788 74.088 190.809 74.536C190.809 74.6213 190.777 74.696 190.713 74.76C190.66 74.824 190.58 74.856 190.473 74.856H189.625C189.401 74.856 189.262 74.7547 189.209 74.552C189.145 74.104 188.894 73.736 188.457 73.448C188.02 73.1493 187.47 73 186.809 73C186.084 73 185.513 73.1387 185.097 73.416C184.681 73.6933 184.473 74.104 184.473 74.648C184.473 75.0107 184.569 75.3093 184.761 75.544C184.964 75.7787 185.268 75.9867 185.673 76.168C186.078 76.3387 186.67 76.536 187.449 76.76C188.356 77.0053 189.07 77.2613 189.593 77.528C190.116 77.784 190.505 78.1093 190.761 78.504C191.017 78.888 191.145 79.3787 191.145 79.976C191.145 80.968 190.761 81.7467 189.993 82.312C189.225 82.8773 188.19 83.16 186.889 83.16ZM196.298 83.16C195.285 83.16 194.501 82.8347 193.946 82.184C193.391 81.5227 193.114 80.648 193.114 79.56V75.048C193.114 74.9413 193.146 74.856 193.21 74.792C193.285 74.7173 193.375 74.68 193.482 74.68H194.282C194.389 74.68 194.474 74.7173 194.538 74.792C194.613 74.856 194.65 74.9413 194.65 75.048V79.48C194.65 81.0693 195.343 81.864 196.73 81.864C197.402 81.864 197.935 81.656 198.33 81.24C198.725 80.8133 198.922 80.2267 198.922 79.48V75.048C198.922 74.9413 198.954 74.856 199.018 74.792C199.093 74.7173 199.183 74.68 199.29 74.68H200.09C200.197 74.68 200.282 74.7173 200.346 74.792C200.41 74.856 200.442 74.9413 200.442 75.048V82.632C200.442 82.7387 200.41 82.8293 200.346 82.904C200.282 82.968 200.197 83 200.09 83H199.338C199.231 83 199.141 82.968 199.066 82.904C199.002 82.8293 198.97 82.7387 198.97 82.632V81.928C198.671 82.3333 198.309 82.6427 197.882 82.856C197.455 83.0587 196.927 83.16 196.298 83.16ZM203.363 86.04C203.256 86.04 203.166 86.0027 203.091 85.928C203.027 85.864 202.995 85.7787 202.995 85.672V75.048C202.995 74.9413 203.027 74.856 203.091 74.792C203.166 74.7173 203.256 74.68 203.363 74.68H204.099C204.206 74.68 204.291 74.7173 204.355 74.792C204.43 74.856 204.467 74.9413 204.467 75.048V75.752C205.064 74.9307 205.939 74.52 207.091 74.52C208.211 74.52 209.048 74.872 209.603 75.576C210.168 76.28 210.472 77.1867 210.515 78.296C210.526 78.4133 210.531 78.5947 210.531 78.84C210.531 79.0853 210.526 79.2667 210.515 79.384C210.472 80.4827 210.168 81.3893 209.603 82.104C209.038 82.808 208.2 83.16 207.091 83.16C205.982 83.16 205.118 82.76 204.499 81.96V85.672C204.499 85.7787 204.467 85.864 204.403 85.928C204.339 86.0027 204.254 86.04 204.147 86.04H203.363ZM206.755 81.864C207.512 81.864 208.062 81.6293 208.403 81.16C208.755 80.6907 208.947 80.072 208.979 79.304C208.99 79.1973 208.995 79.0427 208.995 78.84C208.995 76.824 208.248 75.816 206.755 75.816C206.019 75.816 205.464 76.0613 205.091 76.552C204.728 77.032 204.531 77.608 204.499 78.28L204.483 78.888L204.499 79.512C204.52 80.1413 204.723 80.6907 205.107 81.16C205.491 81.6293 206.04 81.864 206.755 81.864ZM213.054 86.04C212.948 86.04 212.857 86.0027 212.782 85.928C212.718 85.864 212.686 85.7787 212.686 85.672V75.048C212.686 74.9413 212.718 74.856 212.782 74.792C212.857 74.7173 212.948 74.68 213.054 74.68H213.79C213.897 74.68 213.982 74.7173 214.046 74.792C214.121 74.856 214.158 74.9413 214.158 75.048V75.752C214.756 74.9307 215.63 74.52 216.782 74.52C217.902 74.52 218.74 74.872 219.294 75.576C219.86 76.28 220.164 77.1867 220.206 78.296C220.217 78.4133 220.222 78.5947 220.222 78.84C220.222 79.0853 220.217 79.2667 220.206 79.384C220.164 80.4827 219.86 81.3893 219.294 82.104C218.729 82.808 217.892 83.16 216.782 83.16C215.673 83.16 214.809 82.76 214.19 81.96V85.672C214.19 85.7787 214.158 85.864 214.094 85.928C214.03 86.0027 213.945 86.04 213.838 86.04H213.054ZM216.446 81.864C217.204 81.864 217.753 81.6293 218.094 81.16C218.446 80.6907 218.638 80.072 218.67 79.304C218.681 79.1973 218.686 79.0427 218.686 78.84C218.686 76.824 217.94 75.816 216.446 75.816C215.71 75.816 215.156 76.0613 214.782 76.552C214.42 77.032 214.222 77.608 214.19 78.28L214.174 78.888L214.19 79.512C214.212 80.1413 214.414 80.6907 214.798 81.16C215.182 81.6293 215.732 81.864 216.446 81.864ZM225.769 83.16C224.596 83.16 223.684 82.8293 223.033 82.168C222.393 81.5067 222.052 80.6267 222.009 79.528L221.993 78.84L222.009 78.152C222.052 77.064 222.399 76.1893 223.049 75.528C223.7 74.856 224.607 74.52 225.769 74.52C226.932 74.52 227.839 74.856 228.489 75.528C229.14 76.1893 229.487 77.064 229.529 78.152C229.54 78.2693 229.545 78.4987 229.545 78.84C229.545 79.1813 229.54 79.4107 229.529 79.528C229.487 80.6267 229.14 81.5067 228.489 82.168C227.849 82.8293 226.943 83.16 225.769 83.16ZM225.769 81.928C226.441 81.928 226.969 81.7147 227.353 81.288C227.748 80.8613 227.961 80.248 227.993 79.448C228.004 79.3413 228.009 79.1387 228.009 78.84C228.009 78.5413 228.004 78.3387 227.993 78.232C227.961 77.432 227.748 76.8187 227.353 76.392C226.969 75.9653 226.441 75.752 225.769 75.752C225.097 75.752 224.564 75.9653 224.169 76.392C223.775 76.8187 223.567 77.432 223.545 78.232L223.529 78.84L223.545 79.448C223.567 80.248 223.775 80.8613 224.169 81.288C224.564 81.7147 225.097 81.928 225.769 81.928ZM232.077 83C231.97 83 231.88 82.968 231.805 82.904C231.741 82.8293 231.709 82.7387 231.709 82.632V75.064C231.709 74.9573 231.741 74.8667 231.805 74.792C231.88 74.7173 231.97 74.68 232.077 74.68H232.813C232.92 74.68 233.01 74.7173 233.085 74.792C233.16 74.8667 233.197 74.9573 233.197 75.064V75.768C233.634 75.0427 234.381 74.68 235.437 74.68H236.061C236.168 74.68 236.253 74.7173 236.317 74.792C236.392 74.856 236.429 74.9413 236.429 75.048V75.704C236.429 75.8107 236.392 75.896 236.317 75.96C236.253 76.024 236.168 76.056 236.061 76.056H235.101C234.525 76.056 234.072 76.2267 233.741 76.568C233.41 76.8987 233.245 77.352 233.245 77.928V82.632C233.245 82.7387 233.208 82.8293 233.133 82.904C233.058 82.968 232.968 83 232.861 83H232.077ZM241.195 83C239.51 83 238.667 82.0613 238.667 80.184V75.96H237.419C237.312 75.96 237.222 75.928 237.147 75.864C237.083 75.7893 237.051 75.6987 237.051 75.592V75.048C237.051 74.9413 237.083 74.856 237.147 74.792C237.222 74.7173 237.312 74.68 237.419 74.68H238.667V72.008C238.667 71.9013 238.699 71.816 238.763 71.752C238.838 71.6773 238.928 71.64 239.035 71.64H239.787C239.894 71.64 239.979 71.6773 240.043 71.752C240.118 71.816 240.155 71.9013 240.155 72.008V74.68H242.139C242.246 74.68 242.331 74.7173 242.395 74.792C242.47 74.856 242.507 74.9413 242.507 75.048V75.592C242.507 75.6987 242.47 75.7893 242.395 75.864C242.331 75.928 242.246 75.96 242.139 75.96H240.155V80.072C240.155 80.6053 240.246 81.0107 240.427 81.288C240.608 81.5547 240.907 81.688 241.323 81.688H242.299C242.406 81.688 242.491 81.7253 242.555 81.8C242.63 81.864 242.667 81.9493 242.667 82.056V82.632C242.667 82.7387 242.63 82.8293 242.555 82.904C242.491 82.968 242.406 83 242.299 83H241.195ZM247.685 83.16C246.586 83.16 245.706 82.824 245.045 82.152C244.394 81.4693 244.037 80.5413 243.973 79.368L243.957 78.824L243.973 78.296C244.048 77.144 244.41 76.2267 245.061 75.544C245.722 74.8613 246.592 74.52 247.669 74.52C248.853 74.52 249.77 74.8987 250.421 75.656C251.072 76.4027 251.397 77.416 251.397 78.696V78.968C251.397 79.0747 251.36 79.1653 251.285 79.24C251.221 79.304 251.136 79.336 251.029 79.336H245.493V79.48C245.525 80.1733 245.733 80.7653 246.117 81.256C246.512 81.736 247.029 81.976 247.669 81.976C248.16 81.976 248.56 81.88 248.869 81.688C249.189 81.4853 249.424 81.2773 249.573 81.064C249.669 80.936 249.738 80.8613 249.781 80.84C249.834 80.808 249.925 80.792 250.053 80.792H250.837C250.933 80.792 251.013 80.8187 251.077 80.872C251.141 80.9253 251.173 81 251.173 81.096C251.173 81.3307 251.024 81.6133 250.725 81.944C250.437 82.2747 250.026 82.5627 249.493 82.808C248.97 83.0427 248.368 83.16 247.685 83.16ZM249.877 78.232V78.184C249.877 77.448 249.674 76.8507 249.269 76.392C248.874 75.9227 248.341 75.688 247.669 75.688C246.997 75.688 246.464 75.9227 246.069 76.392C245.685 76.8507 245.493 77.448 245.493 78.184V78.232H249.877ZM256.51 83.16C255.401 83.16 254.564 82.7973 253.998 82.072C253.433 81.3467 253.134 80.4293 253.102 79.32L253.086 78.84L253.102 78.36C253.134 77.2613 253.433 76.3493 253.998 75.624C254.564 74.888 255.401 74.52 256.51 74.52C257.609 74.52 258.473 74.9093 259.102 75.688V72.008C259.102 71.9013 259.134 71.816 259.198 71.752C259.273 71.6773 259.364 71.64 259.47 71.64H260.238C260.345 71.64 260.43 71.6773 260.494 71.752C260.569 71.816 260.606 71.9013 260.606 72.008V82.632C260.606 82.7387 260.569 82.8293 260.494 82.904C260.43 82.968 260.345 83 260.238 83H259.518C259.412 83 259.321 82.968 259.246 82.904C259.182 82.8293 259.15 82.7387 259.15 82.632V81.96C258.532 82.76 257.652 83.16 256.51 83.16ZM256.846 81.864C257.582 81.864 258.132 81.624 258.494 81.144C258.868 80.6533 259.07 80.072 259.102 79.4C259.113 79.2827 259.118 79.08 259.118 78.792C259.118 78.4933 259.113 78.2853 259.102 78.168C259.081 77.5387 258.878 76.9893 258.494 76.52C258.11 76.0507 257.561 75.816 256.846 75.816C256.089 75.816 255.534 76.0507 255.182 76.52C254.841 76.9893 254.654 77.608 254.622 78.376L254.606 78.84C254.606 80.856 255.353 81.864 256.846 81.864Z" fill="#E0E0E0"/>
<path d="M115.08 44C114.813 44 114.573 43.9067 114.36 43.72C114.173 43.5067 114.08 43.2667 114.08 43V23.96L108.6 28.16C108.413 28.32 108.213 28.4 108 28.4C107.707 28.4 107.44 28.24 107.2 27.92L104.84 24.84C104.707 24.6267 104.64 24.4267 104.64 24.24C104.64 23.8667 104.8 23.5867 105.12 23.4L114.32 16.28C114.613 16.0933 114.933 16 115.28 16H120.28C120.573 16 120.813 16.0933 121 16.28C121.187 16.4667 121.28 16.7067 121.28 17V43C121.28 43.2667 121.187 43.5067 121 43.72C120.813 43.9067 120.573 44 120.28 44H115.08ZM130.843 44C130.603 44 130.403 43.92 130.243 43.76C130.083 43.5733 130.003 43.36 130.003 43.12C130.003 42.9333 130.056 42.76 130.163 42.6L135.803 34.88C135.456 34.96 135.069 35 134.643 35C132.989 34.8933 131.429 34.44 129.963 33.64C128.496 32.84 127.309 31.7467 126.403 30.36C125.496 28.9733 125.043 27.3867 125.043 25.6C125.043 23.84 125.483 22.2 126.363 20.68C127.243 19.16 128.536 17.9333 130.243 17C131.976 16.0667 134.056 15.6 136.483 15.6C138.936 15.6 141.043 16.0267 142.803 16.88C144.589 17.7333 145.936 18.9067 146.843 20.4C147.749 21.8667 148.203 23.5067 148.203 25.32C148.203 26.7867 147.896 28.12 147.283 29.32C146.696 30.52 145.816 31.9333 144.643 33.56C144.589 33.6133 144.376 33.9067 144.003 34.44L137.603 43.2C137.229 43.7333 136.749 44 136.163 44H130.843ZM136.563 29.72C137.789 29.72 138.803 29.3467 139.603 28.6C140.403 27.8533 140.803 26.84 140.803 25.56C140.803 24.28 140.403 23.2667 139.603 22.52C138.803 21.7467 137.789 21.36 136.563 21.36C135.336 21.36 134.323 21.7467 133.523 22.52C132.749 23.2667 132.363 24.28 132.363 25.56C132.363 26.84 132.763 27.8533 133.563 28.6C134.363 29.3467 135.363 29.72 136.563 29.72ZM162.308 44.44C159.908 44.44 157.854 44.0667 156.148 43.32C154.441 42.5467 153.134 41.52 152.228 40.24C151.348 38.96 150.881 37.5733 150.828 36.08C150.828 35.84 150.908 35.64 151.068 35.48C151.228 35.32 151.428 35.24 151.668 35.24H157.028C157.641 35.24 158.068 35.4933 158.308 36C159.028 37.7867 160.374 38.68 162.348 38.68C163.521 38.68 164.508 38.32 165.308 37.6C166.134 36.8533 166.548 35.8267 166.548 34.52C166.548 33.3467 166.148 32.3867 165.348 31.64C164.574 30.8933 163.574 30.52 162.348 30.52C161.654 30.52 161.094 30.6133 160.668 30.8C160.268 30.96 159.854 31.2 159.428 31.52C158.974 31.8667 158.614 32.04 158.348 32.04H153.108C152.868 32.04 152.654 31.96 152.468 31.8C152.308 31.6133 152.228 31.4 152.228 31.16L153.668 17.2C153.694 16.8267 153.828 16.5333 154.068 16.32C154.334 16.1067 154.641 16 154.988 16H171.028C171.321 16 171.561 16.0933 171.748 16.28C171.961 16.4667 172.068 16.7067 172.068 17V20.76C172.068 21.0533 171.961 21.2933 171.748 21.48C171.561 21.6667 171.321 21.76 171.028 21.76H159.428L158.908 26.92C159.574 26.4667 160.308 26.1333 161.108 25.92C161.908 25.68 162.948 25.56 164.228 25.56C165.908 25.56 167.494 25.9467 168.988 26.72C170.481 27.4667 171.668 28.5333 172.548 29.92C173.454 31.3067 173.908 32.8933 173.908 34.68C173.908 36.5733 173.441 38.2667 172.508 39.76C171.574 41.2267 170.228 42.3733 168.468 43.2C166.734 44.0267 164.681 44.44 162.308 44.44Z" fill="white"/>
<circle opacity="0.1" cx="40" cy="40" r="40" fill="white"/>
<path d="M52.3743 27.6364C50.7522 25.9982 48.8224 24.6967 46.6958 23.8066C44.5692 22.9166 42.2877 22.4554 39.9823 22.4498C37.6769 22.4441 35.3931 22.894 33.2621 23.7736C31.1312 24.6532 29.195 25.9452 27.5648 27.5753C25.9347 29.2055 24.6427 31.1417 23.7631 33.2727C22.8835 35.4036 22.4336 37.6874 22.4393 39.9928C22.4449 42.2982 22.9061 44.5797 23.7962 46.7063C24.6862 48.8329 25.9877 50.7627 27.6259 52.3848C29.248 54.023 31.1778 55.3245 33.3044 56.2146C35.4311 57.1047 37.7126 57.5658 40.018 57.5715C42.3233 57.5772 44.6071 57.1273 46.7381 56.2477C48.8691 55.3681 50.8052 54.0761 52.4354 52.4459C54.0655 50.8158 55.3575 48.8796 56.2371 46.7486C57.1168 44.6176 57.5667 42.3338 57.561 40.0285C57.5553 37.7231 57.0942 35.4416 56.2041 33.3149C55.314 31.1883 54.0125 29.2585 52.3743 27.6364ZM25.0001 40.0106C24.9996 38.6831 25.1756 37.3613 25.5236 36.0802C26.097 37.3145 26.9298 38.3809 27.4962 39.6473C28.2282 41.2755 30.1939 40.8239 31.0618 42.2505C31.8322 43.5169 31.0095 45.1184 31.5861 46.4434C32.0048 47.4052 32.9923 47.6153 33.6736 48.3184C34.3697 49.0278 34.3548 49.9997 34.4611 50.9247C34.581 52.0115 34.7754 53.0888 35.0431 54.1489C35.0431 54.1567 35.0431 54.1653 35.0493 54.1731C29.2032 52.12 25.0001 46.5473 25.0001 40.0106ZM40.0001 55.0106C39.1624 55.0104 38.3262 54.9403 37.5001 54.8013C37.5087 54.5895 37.5126 54.3919 37.5337 54.2544C37.7236 53.0122 38.3454 51.7973 39.1845 50.8677C40.0134 49.9505 41.1493 49.3302 41.8493 48.2895C42.5353 47.2739 42.7407 45.9067 42.4579 44.72C42.0415 42.9669 39.6595 42.3817 38.3751 41.4309C37.6368 40.8841 36.9798 40.0387 36.0103 39.97C35.5634 39.9387 35.1892 40.0348 34.7462 39.9208C34.34 39.8153 34.0212 39.5966 33.5884 39.6536C32.7798 39.7598 32.2697 40.6239 31.4009 40.5067C30.5767 40.3966 29.7275 39.4317 29.54 38.6466C29.2993 37.6372 30.0978 37.3098 30.9532 37.22C31.3103 37.1825 31.7111 37.1419 32.054 37.2731C32.5056 37.4403 32.7189 37.8825 33.1243 38.1059C33.8845 38.5231 34.0384 37.8567 33.922 37.1817C33.7478 36.1708 33.5447 35.7591 34.4462 35.063C35.0712 34.5833 35.6056 34.2364 35.5056 33.3747C35.4462 32.8684 35.1689 32.6395 35.4275 32.1356C35.6236 31.752 36.1618 31.4059 36.5126 31.177C37.4181 30.5864 40.3915 30.6302 39.1767 28.977C38.8197 28.4919 38.1611 27.6247 37.5361 27.5059C36.7548 27.3583 36.4079 28.2302 35.8634 28.6145C35.3009 29.0122 34.2056 29.4637 33.6423 28.8489C32.8845 28.0216 34.1447 27.7505 34.4236 27.1723C34.5525 26.9028 34.4236 26.5286 34.2064 26.1762C34.4881 26.0575 34.7746 25.9473 35.0657 25.8458C35.2482 25.9805 35.4647 26.0617 35.6907 26.0802C36.2134 26.1145 36.7064 25.8317 37.1626 26.188C37.6689 26.5786 38.0337 27.0723 38.7056 27.1942C39.3556 27.3122 40.0439 26.9333 40.2048 26.2677C40.3025 25.863 40.2048 25.4356 40.1111 25.0177C43.0329 25.0345 45.8855 25.9095 48.3142 27.5341C48.1579 27.4747 47.9712 27.4817 47.7407 27.5887C47.2665 27.8091 46.5947 28.37 46.5392 28.9262C46.4759 29.5575 47.4071 29.6466 47.8493 29.6466C48.5134 29.6466 49.1861 29.3497 48.972 28.5825C48.879 28.2497 48.7525 27.9036 48.5486 27.6942C49.0387 28.0343 49.5083 28.4032 49.9548 28.7989C49.9478 28.8059 49.9407 28.8122 49.9337 28.82C49.4837 29.2887 48.9611 29.6598 48.6532 30.2302C48.4361 30.6317 48.1915 30.8223 47.7517 30.9262C47.5095 30.9833 47.2329 31.0044 47.0298 31.1669C46.4642 31.6122 46.7861 32.6825 47.322 33.0036C47.9993 33.4091 49.004 33.2184 49.515 32.6395C49.9142 32.1864 50.1493 31.3997 50.8673 31.4005C51.1834 31.3998 51.487 31.5236 51.7126 31.745C52.0095 32.0528 51.9509 32.3403 52.0142 32.7247C52.1259 33.4075 52.7282 33.0372 53.0946 32.6927C53.3617 33.168 53.6027 33.6575 53.8165 34.1591C53.4134 34.7395 53.0931 35.3723 52.1236 34.6958C51.5431 34.2903 51.1861 33.702 50.4571 33.5192C49.8204 33.363 49.1681 33.5255 48.5392 33.6341C47.8243 33.7583 46.9767 33.813 46.4345 34.3544C45.9103 34.8762 45.6329 35.5747 45.0751 36.0989C43.9962 37.1145 43.5407 38.2231 44.2392 39.6591C44.9111 41.0395 46.3165 41.7887 47.8329 41.6903C49.3228 41.5911 50.8704 40.727 50.8275 42.8919C50.8118 43.6583 50.972 44.1888 51.2071 44.9005C51.4251 45.5567 51.4103 46.1927 51.4603 46.87C51.5078 47.6632 51.6318 48.4499 51.8306 49.2192C50.4303 51.0222 48.6364 52.4812 46.586 53.485C44.5357 54.4887 42.283 55.0105 40.0001 55.0106Z" fill="#3671E9"/>
</svg>
